<svg version="1.0" xmlns="http://www.w3.org/2000/svg" viewBox="0 0 900 600"><path d="M900 243.4c-10.9-12.5-21.8-24.9-34.6-25.1-12.8-.2-27.6 11.7-40.6 13.2-13.1 1.4-24.4-7.7-34.2-16.8-9.8-9-18.1-17.9-28.1-25.4-10.1-7.5-21.9-13.6-27.3-24.5-5.3-11-4.1-26.9-12.4-36.1-8.3-9.2-26-11.6-36.6-19.7-10.6-8.1-14.1-21.9-13.5-35.1.6-13.3 5.1-26.2 3.1-38.4-2-12.2-10.6-23.9-19.2-35.5H900Z" fill="#eaeaea"/><path d="M900 213c-9.5-10.9-19-21.8-30.3-22-11.2-.2-24.1 10.3-35.5 11.5-11.4 1.3-21.4-6.7-29.9-14.6-8.6-7.9-15.9-15.7-24.6-22.3-8.8-6.5-19.2-11.8-23.9-21.4-4.6-9.6-3.6-23.5-10.8-31.6-7.3-8-22.8-10.2-32.1-17.3-9.3-7.1-12.3-19.1-11.8-30.7.5-11.6 4.5-22.8 2.7-33.5-1.7-10.7-9.2-20.9-16.8-31.1h213Z" fill="#c2c2c2"/><path d="M900 182.5c-8.2-9.3-16.3-18.6-25.9-18.8-9.6-.2-20.7 8.8-30.5 9.9-9.8 1.1-18.3-5.8-25.7-12.6-7.3-6.7-13.5-13.4-21.1-19-7.5-5.6-16.4-10.2-20.4-18.4-4-8.3-3.1-20.2-9.3-27.1-6.2-6.8-19.5-8.7-27.5-14.8-7.9-6.1-10.5-16.4-10.1-26.3.4-10 3.9-19.6 2.3-28.8-1.5-9.1-7.9-17.9-14.3-26.6H900Z" fill="#9c9c9c"/><path d="M900 152.1c-6.8-7.8-13.6-15.5-21.6-15.7-8-.1-17.2 7.4-25.4 8.3-8.2.9-15.3-4.9-21.4-10.5-6.1-5.6-11.3-11.2-17.6-15.9-6.2-4.7-13.6-8.5-17-15.3-3.3-6.9-2.6-16.8-7.7-22.5-5.2-5.8-16.3-7.3-23-12.4-6.6-5.1-8.7-13.6-8.4-21.9.4-8.3 3.2-16.4 2-24-1.3-7.7-6.6-14.9-12-22.2H900Z" fill="#777"/><path d="M900 121.7c-5.4-6.2-10.9-12.4-17.3-12.6-6.4-.1-13.8 5.9-20.3 6.6-6.5.7-12.2-3.8-17.1-8.3-4.9-4.5-9-9-14.1-12.7-5-3.8-10.9-6.8-13.6-12.3-2.6-5.5-2-13.4-6.2-18-4.1-4.6-13-5.9-18.3-9.9-5.3-4.1-7-10.9-6.8-17.6.3-6.6 2.6-13 1.6-19.1-1-6.2-5.3-12-9.6-17.8H900Z" fill="#545454"/><path d="M900 91.3c-4.1-4.7-8.2-9.4-13-9.4-4.8-.1-10.3 4.4-15.2 4.9-4.9.5-9.2-2.9-12.8-6.3-3.7-3.4-6.8-6.7-10.6-9.5-3.7-2.8-8.2-5.1-10.2-9.2s-1.5-10.1-4.6-13.5c-3.1-3.5-9.8-4.4-13.8-7.4-4-3.1-5.2-8.2-5-13.2.2-5 1.9-9.8 1.1-14.4-.7-4.6-3.9-8.9-7.2-13.3H900Z" fill="#333"/><path d="M900 60.8c-2.7-3.1-5.4-6.2-8.6-6.2-3.2-.1-6.9 2.9-10.2 3.3-3.3.3-6.1-2-8.6-4.2-2.4-2.3-4.5-4.5-7-6.4-2.5-1.8-5.5-3.4-6.8-6.1-1.3-2.8-1-6.7-3.1-9s-6.5-2.9-9.2-5c-2.6-2-3.5-5.4-3.3-8.7.1-3.4 1.3-6.6.7-9.6-.5-3.1-2.6-6-4.7-8.9H900Z" fill="#161616"/><path d="M900 30.4c-1.4-1.5-2.7-3.1-4.3-3.1-1.6 0-3.5 1.5-5.1 1.6-1.6.2-3.1-.9-4.3-2.1-1.2-1.1-2.2-2.2-3.5-3.1-1.2-1-2.7-1.7-3.4-3.1-.7-1.4-.5-3.4-1.5-4.5-1.1-1.2-3.3-1.5-4.6-2.5-1.4-1-1.8-2.7-1.7-4.4.1-1.6.6-3.2.4-4.8-.3-1.5-1.3-2.9-2.4-4.4H900Z"/><path d="M0 356.6c11.5 8.6 23 17.2 35.7 18.2 12.6 1 26.5-5.6 38.8-4 12.3 1.6 23.1 11.4 30.8 22.5 7.8 11.1 12.5 23.5 24.6 27.9 12.1 4.4 31.7.9 40.5 8.4 8.8 7.4 6.8 25.8 13.2 37 6.5 11.1 21.5 15.1 32 23.5 10.5 8.5 16.6 21.4 15.9 34.7-.7 13.3-8.2 27.1-7.3 39.7.9 12.6 10 24 19.2 35.5H0Z" fill="#eaeaea"/><path d="M0 387c10.1 7.6 20.1 15.1 31.2 16 11.1.8 23.2-5 34-3.6 10.7 1.4 20.2 10 27 19.7 6.7 9.7 10.8 20.6 21.5 24.5 10.6 3.8 27.7.8 35.4 7.3 7.7 6.5 5.9 22.6 11.6 32.4 5.7 9.7 18.8 13.2 28 20.6 9.2 7.3 14.4 18.6 13.8 30.3-.6 11.7-7.1 23.7-6.3 34.7.7 11.1 8.7 21.1 16.8 31.1H0Z" fill="#c2c2c2"/><path d="M0 417.5c8.6 6.4 17.3 12.9 26.8 13.6 9.4.8 19.8-4.2 29.1-3 9.2 1.2 17.3 8.5 23.1 16.9 5.8 8.3 9.3 17.6 18.4 20.9 9.1 3.3 23.8.7 30.4 6.3 6.6 5.6 5.1 19.4 9.9 27.7 4.9 8.4 16.1 11.4 24 17.7 7.9 6.3 12.4 16 11.9 26s-6.1 20.3-5.4 29.8c.6 9.4 7.5 18 14.3 26.6H0Z" fill="#9c9c9c"/><path d="M0 447.9c7.2 5.4 14.4 10.7 22.3 11.4 7.9.6 16.6-3.6 24.2-2.6 7.7 1 14.5 7.2 19.3 14.1 4.9 6.9 7.8 14.7 15.4 17.5 7.6 2.7 19.8.5 25.3 5.2 5.5 4.6 4.2 16.1 8.3 23.1 4 7 13.4 9.5 20 14.7 6.5 5.3 10.3 13.4 9.9 21.7-.5 8.3-5.1 16.9-4.6 24.8.6 7.9 6.3 15 12 22.2H0Z" fill="#777"/><path d="M0 478.3c5.8 4.3 11.5 8.6 17.8 9.1 6.4.5 13.3-2.8 19.4-2 6.2.8 11.6 5.7 15.5 11.2 3.8 5.6 6.2 11.8 12.3 14 6 2.2 15.8.5 20.2 4.2 4.4 3.7 3.4 12.9 6.6 18.5 3.3 5.6 10.8 7.6 16 11.8 5.3 4.2 8.3 10.6 7.9 17.3-.3 6.7-4 13.5-3.6 19.8.4 6.3 5 12.1 9.6 17.8H0Z" fill="#545454"/><path d="M0 508.7c4.3 3.3 8.6 6.5 13.4 6.9 4.7.3 9.9-2.2 14.5-1.6 4.6.6 8.7 4.3 11.6 8.5 2.9 4.1 4.7 8.8 9.2 10.5 4.6 1.6 11.9.3 15.2 3.1 3.3 2.8 2.5 9.7 5 13.9 2.4 4.2 8 5.6 12 8.8 3.9 3.2 6.2 8 5.9 13-.3 5-3 10.2-2.7 14.9.3 4.7 3.7 9 7.2 13.3H0Z" fill="#333"/><path d="M0 539.2c2.9 2.1 5.8 4.3 8.9 4.5 3.2.3 6.6-1.4 9.7-1 3.1.4 5.8 2.8 7.7 5.6 2 2.8 3.1 5.9 6.2 7 3 1.1 7.9.2 10.1 2.1 2.2 1.9 1.7 6.5 3.3 9.2 1.6 2.8 5.4 3.8 8 5.9 2.6 2.1 4.1 5.4 4 8.7-.2 3.3-2.1 6.8-1.8 9.9.2 3.2 2.5 6 4.7 8.9H0Z" fill="#161616"/><path d="M0 569.6c1.4 1.1 2.9 2.1 4.5 2.3 1.5.1 3.3-.8 4.8-.6 1.5.2 2.9 1.5 3.9 2.9.9 1.3 1.5 2.9 3 3.5 1.6.5 4 .1 5.1 1 1.1.9.8 3.2 1.7 4.6.8 1.4 2.6 1.9 4 3 1.3 1 2 2.6 1.9 4.3-.1 1.7-1 3.4-.9 5 .1 1.5 1.3 3 2.4 4.4H0Z"/><g transform="matrix(10 0 0 10 450 300)"><ellipse ry="30" rx="43" fill="#00f" filter="url(#f1)"/><path class="cls-1" d="M-15.8-18.345h-15.65c-8.44 16.285 0 35.69 0 35.69h15.65c-15.475-17.5 0-35.69 0-35.69Zm-6.585 31.88h-5.825s-6.235-8.69 0-27.84h5.825s-10.4 12.59 0 27.84ZM30.65-18.29 15-18.405C30.345-.79 14.74 17.29 14.74 17.29l15.65.115c8.56-16.225.26-35.695.26-35.695Zm-3.5 31.625-5.82-.04s10.5-12.5.205-27.84l5.825.045s6.195 8.735-.185 27.835Z" fill="0"/></g><g transform="matrix(0 .02 .02 0 315 215)"><path d="M3620 12399c-927-74-1677-387-2238-934-239-232-404-456-538-730-342-700-363-1595-57-2370 291-736 869-1419 1715-2030l138-99-248-126C885 5341 235 4434 273 3156c23-788 326-1421 907-1897 560-459 1280-722 2200-804 96-8 299-18 450-22 1200-26 2175 237 2904 786 675 508 1051 1164 1152 2006 20 172 23 568 5 740-105 1001-596 1833-1553 2634-196 163-492 383-701 521-97 63-176 117-176 120-1 3 61 36 137 74 179 89 385 207 547 313 806 529 1231 1132 1350 1913 22 146 31 468 16 611-53 500-254 922-612 1279-565 565-1398 899-2419 970-169 11-708 11-860-1zm763-875c474-77 855-333 1101-741 172-286 259-675 243-1083-26-629-253-1169-721-1715-79-93-238-255-250-255-15 0-302 177-511 315-852 565-1333 1084-1514 1635-135 412-114 851 57 1185 199 387 595 629 1104 674 130 12 371 4 491-15zm-793-5958c675-404 1214-816 1548-1186 439-485 650-1009 629-1565-16-423-151-753-420-1027-238-244-533-395-897-459-147-27-461-36-621-20-411 43-742 176-1026 414-379 319-608 778-664 1331-7 74-10 199-6 335 8 302 39 486 132 767 158 480 437 919 909 1427 127 136 139 146 159 136 12-7 128-75 257-153z"/><animate attributeName="fill" values="black;white;black" dur="10s" repeatCount="indefinite"/></g></svg>