<?xml version="1.0" standalone="no"?>
<!DOCTYPE svg PUBLIC "-//W3C//DTD SVG 20010904//EN"
 "http://www.w3.org/TR/2001/REC-SVG-20010904/DTD/svg10.dtd">
<svg version="1.0" xmlns="http://www.w3.org/2000/svg"
 viewBox="0 0 900.000000 600.000000">

<defs><linearGradient id="grad1_0" x1="33.3%" y1="0%" x2="100%" y2="100%">
<stop offset="20%" stop-color="#000000" stop-opacity="1"></stop>
<stop offset="80%" stop-color="#000000" stop-opacity="1"></stop>
</linearGradient>
</defs>
<defs>
<linearGradient id="grad1_1" x1="33.3%" y1="0%" x2="100%" y2="100%"><stop offset="20%" stop-color="#000000" stop-opacity="1"></stop><stop offset="80%" stop-color="#242424" stop-opacity="1"></stop></linearGradient></defs><defs><linearGradient id="grad1_2" x1="33.3%" y1="0%" x2="100%" y2="100%"><stop offset="20%" stop-color="#434343" stop-opacity="1"></stop><stop offset="80%" stop-color="#242424" stop-opacity="1"></stop></linearGradient></defs><defs><linearGradient id="grad1_3" x1="33.3%" y1="0%" x2="100%" y2="100%"><stop offset="20%" stop-color="#434343" stop-opacity="1"></stop><stop offset="80%" stop-color="#656565" stop-opacity="1"></stop></linearGradient></defs><defs><linearGradient id="grad1_4" x1="33.3%" y1="0%" x2="100%" y2="100%"><stop offset="20%" stop-color="#898989" stop-opacity="1"></stop><stop offset="80%" stop-color="#656565" stop-opacity="1"></stop></linearGradient></defs><defs><linearGradient id="grad1_5" x1="33.3%" y1="0%" x2="100%" y2="100%"><stop offset="20%" stop-color="#898989" stop-opacity="1"></stop><stop offset="80%" stop-color="#afafaf" stop-opacity="1"></stop></linearGradient></defs><defs><linearGradient id="grad1_6" x1="33.3%" y1="0%" x2="100%" y2="100%"><stop offset="20%" stop-color="#d6d6d6" stop-opacity="1"></stop><stop offset="80%" stop-color="#afafaf" stop-opacity="1"></stop></linearGradient></defs><defs><linearGradient id="grad1_7" x1="33.3%" y1="0%" x2="100%" y2="100%"><stop offset="20%" stop-color="#d6d6d6" stop-opacity="1"></stop><stop offset="80%" stop-color="#ffffff" stop-opacity="1"></stop></linearGradient></defs><defs><linearGradient id="grad2_0" x1="0%" y1="0%" x2="66.7%" y2="100%"><stop offset="20%" stop-color="#000000" stop-opacity="1"></stop><stop offset="80%" stop-color="#000000" stop-opacity="1"></stop></linearGradient></defs><defs><linearGradient id="grad2_1" x1="0%" y1="0%" x2="66.7%" y2="100%"><stop offset="20%" stop-color="#242424" stop-opacity="1"></stop><stop offset="80%" stop-color="#000000" stop-opacity="1"></stop></linearGradient></defs><defs><linearGradient id="grad2_2" x1="0%" y1="0%" x2="66.7%" y2="100%"><stop offset="20%" stop-color="#242424" stop-opacity="1"></stop><stop offset="80%" stop-color="#434343" stop-opacity="1"></stop></linearGradient></defs><defs><linearGradient id="grad2_3" x1="0%" y1="0%" x2="66.7%" y2="100%"><stop offset="20%" stop-color="#656565" stop-opacity="1"></stop><stop offset="80%" stop-color="#434343" stop-opacity="1"></stop></linearGradient></defs><defs><linearGradient id="grad2_4" x1="0%" y1="0%" x2="66.7%" y2="100%"><stop offset="20%" stop-color="#656565" stop-opacity="1"></stop><stop offset="80%" stop-color="#898989" stop-opacity="1"></stop></linearGradient></defs><defs><linearGradient id="grad2_5" x1="0%" y1="0%" x2="66.7%" y2="100%"><stop offset="20%" stop-color="#afafaf" stop-opacity="1"></stop><stop offset="80%" stop-color="#898989" stop-opacity="1"></stop></linearGradient></defs><defs><linearGradient id="grad2_6" x1="0%" y1="0%" x2="66.7%" y2="100%"><stop offset="20%" stop-color="#afafaf" stop-opacity="1"></stop><stop offset="80%" stop-color="#d6d6d6" stop-opacity="1"></stop></linearGradient></defs><defs><linearGradient id="grad2_7" x1="0%" y1="0%" x2="66.7%" y2="100%"><stop offset="20%" stop-color="#ffffff" stop-opacity="1"></stop><stop offset="80%" stop-color="#d6d6d6" stop-opacity="1"></stop></linearGradient></defs>
<g transform="translate(900, 0)"><path d="M0 243.4C-10.9 230.9 -21.8 218.5 -34.6 218.3C-47.4 218.1 -62.2 230 -75.2 231.5C-88.3 232.9 -99.6 223.8 -109.4 214.7C-119.2 205.7 -127.5 196.8 -137.5 189.3C-147.6 181.8 -159.4 175.7 -164.8 164.8C-170.1 153.8 -168.9 137.9 -177.2 128.7C-185.5 119.5 -203.2 117.1 -213.8 109C-224.4 100.9 -227.9 87.1 -227.3 73.9C-226.7 60.6 -222.2 47.7 -224.2 35.5C-226.2 23.3 -234.8 11.6 -243.4 0L0 0Z" fill="#eaeaea"></path><path d="M0 213C-9.5 202.1 -19 191.2 -30.3 191C-41.5 190.8 -54.4 201.3 -65.8 202.5C-77.2 203.8 -87.2 195.8 -95.7 187.9C-104.3 180 -111.6 172.2 -120.3 165.6C-129.1 159.1 -139.5 153.8 -144.2 144.2C-148.8 134.6 -147.8 120.7 -155 112.6C-162.3 104.6 -177.8 102.4 -187.1 95.3C-196.4 88.2 -199.4 76.2 -198.9 64.6C-198.4 53 -194.4 41.8 -196.2 31.1C-197.9 20.4 -205.4 10.2 -213 0L0 0Z" fill="#c2c2c2"></path><path d="M0 182.5C-8.2 173.2 -16.3 163.9 -25.9 163.7C-35.5 163.5 -46.6 172.5 -56.4 173.6C-66.2 174.7 -74.7 167.8 -82.1 161C-89.4 154.3 -95.6 147.6 -103.2 142C-110.7 136.4 -119.6 131.8 -123.6 123.6C-127.6 115.3 -126.7 103.4 -132.9 96.5C-139.1 89.7 -152.4 87.8 -160.4 81.7C-168.3 75.6 -170.9 65.3 -170.5 55.4C-170.1 45.4 -166.6 35.8 -168.2 26.6C-169.7 17.5 -176.1 8.7 -182.5 0L0 0Z" fill="#9c9c9c"></path><path d="M0 152.1C-6.8 144.3 -13.6 136.6 -21.6 136.4C-29.6 136.3 -38.8 143.8 -47 144.7C-55.2 145.6 -62.3 139.8 -68.4 134.2C-74.5 128.6 -79.7 123 -86 118.3C-92.2 113.6 -99.6 109.8 -103 103C-106.3 96.1 -105.6 86.2 -110.7 80.5C-115.9 74.7 -127 73.2 -133.7 68.1C-140.3 63 -142.4 54.5 -142.1 46.2C-141.7 37.9 -138.9 29.8 -140.1 22.2C-141.4 14.5 -146.7 7.3 -152.1 0L0 0Z" fill="#777777"></path><path d="M0 121.7C-5.4 115.5 -10.9 109.3 -17.3 109.1C-23.7 109 -31.1 115 -37.6 115.7C-44.1 116.4 -49.8 111.9 -54.7 107.4C-59.6 102.9 -63.7 98.4 -68.8 94.7C-73.8 90.9 -79.7 87.9 -82.4 82.4C-85 76.9 -84.4 69 -88.6 64.4C-92.7 59.8 -101.6 58.5 -106.9 54.5C-112.2 50.4 -113.9 43.6 -113.7 36.9C-113.4 30.3 -111.1 23.9 -112.1 17.8C-113.1 11.6 -117.4 5.8 -121.7 0L0 0Z" fill="#545454"></path><path d="M0 91.3C-4.1 86.6 -8.2 81.9 -13 81.9C-17.8 81.8 -23.3 86.3 -28.2 86.8C-33.1 87.3 -37.4 83.9 -41 80.5C-44.7 77.1 -47.8 73.8 -51.6 71C-55.3 68.2 -59.8 65.9 -61.8 61.8C-63.8 57.7 -63.3 51.7 -66.4 48.3C-69.5 44.8 -76.2 43.9 -80.2 40.9C-84.2 37.8 -85.4 32.7 -85.2 27.7C-85 22.7 -83.3 17.9 -84.1 13.3C-84.8 8.7 -88 4.4 -91.3 0L0 0Z" fill="#333333"></path><path d="M0 60.8C-2.7 57.7 -5.4 54.6 -8.6 54.6C-11.8 54.5 -15.5 57.5 -18.8 57.9C-22.1 58.2 -24.9 55.9 -27.4 53.7C-29.8 51.4 -31.9 49.2 -34.4 47.3C-36.9 45.5 -39.9 43.9 -41.2 41.2C-42.5 38.4 -42.2 34.5 -44.3 32.2C-46.4 29.9 -50.8 29.3 -53.5 27.2C-56.1 25.2 -57 21.8 -56.8 18.5C-56.7 15.1 -55.5 11.9 -56.1 8.9C-56.6 5.8 -58.7 2.9 -60.8 0L0 0Z" fill="#161616"></path><path d="M0 30.4C-1.4 28.9 -2.7 27.3 -4.3 27.3C-5.9 27.3 -7.8 28.8 -9.4 28.9C-11 29.1 -12.5 28 -13.7 26.8C-14.9 25.7 -15.9 24.6 -17.2 23.7C-18.4 22.7 -19.9 22 -20.6 20.6C-21.3 19.2 -21.1 17.2 -22.1 16.1C-23.2 14.9 -25.4 14.6 -26.7 13.6C-28.1 12.6 -28.5 10.9 -28.4 9.2C-28.3 7.6 -27.8 6 -28 4.4C-28.3 2.9 -29.3 1.5 -30.4 0L0 0Z" fill="#000000"></path></g><g transform="translate(0, 600)"><path d="M0 -243.4C11.5 -234.8 23 -226.2 35.7 -225.2C48.3 -224.2 62.2 -230.8 74.5 -229.2C86.8 -227.6 97.6 -217.8 105.3 -206.7C113.1 -195.6 117.8 -183.2 129.9 -178.8C142 -174.4 161.6 -177.9 170.4 -170.4C179.2 -163 177.2 -144.6 183.6 -133.4C190.1 -122.3 205.1 -118.3 215.6 -109.9C226.1 -101.4 232.2 -88.5 231.5 -75.2C230.8 -61.9 223.3 -48.1 224.2 -35.5C225.1 -22.9 234.2 -11.5 243.4 0L0 0Z" fill="#eaeaea"></path><path d="M0 -213C10.1 -205.4 20.1 -197.9 31.2 -197C42.3 -196.2 54.4 -202 65.2 -200.6C75.9 -199.2 85.4 -190.6 92.2 -180.9C98.9 -171.2 103 -160.3 113.7 -156.4C124.3 -152.6 141.4 -155.6 149.1 -149.1C156.8 -142.6 155 -126.5 160.7 -116.7C166.4 -107 179.5 -103.5 188.7 -96.1C197.9 -88.8 203.1 -77.5 202.5 -65.8C201.9 -54.1 195.4 -42.1 196.2 -31.1C196.9 -20 204.9 -10 213 0L0 0Z" fill="#c2c2c2"></path><path d="M0 -182.5C8.6 -176.1 17.3 -169.6 26.8 -168.9C36.2 -168.1 46.6 -173.1 55.9 -171.9C65.1 -170.7 73.2 -163.4 79 -155C84.8 -146.7 88.3 -137.4 97.4 -134.1C106.5 -130.8 121.2 -133.4 127.8 -127.8C134.4 -122.2 132.9 -108.4 137.7 -100.1C142.6 -91.7 153.8 -88.7 161.7 -82.4C169.6 -76.1 174.1 -66.4 173.6 -56.4C173.1 -46.4 167.5 -36.1 168.2 -26.6C168.8 -17.2 175.7 -8.6 182.5 0L0 0Z" fill="#9c9c9c"></path><path d="M0 -152.1C7.2 -146.7 14.4 -141.4 22.3 -140.7C30.2 -140.1 38.9 -144.3 46.5 -143.3C54.2 -142.3 61 -136.1 65.8 -129.2C70.7 -122.3 73.6 -114.5 81.2 -111.7C88.8 -109 101 -111.2 106.5 -106.5C112 -101.9 110.7 -90.4 114.8 -83.4C118.8 -76.4 128.2 -73.9 134.8 -68.7C141.3 -63.4 145.1 -55.3 144.7 -47C144.2 -38.7 139.6 -30.1 140.1 -22.2C140.7 -14.3 146.4 -7.2 152.1 0L0 0Z" fill="#777777"></path><path d="M0 -121.7C5.8 -117.4 11.5 -113.1 17.8 -112.6C24.2 -112.1 31.1 -115.4 37.2 -114.6C43.4 -113.8 48.8 -108.9 52.7 -103.4C56.5 -97.8 58.9 -91.6 65 -89.4C71 -87.2 80.8 -88.9 85.2 -85.2C89.6 -81.5 88.6 -72.3 91.8 -66.7C95.1 -61.1 102.6 -59.1 107.8 -54.9C113.1 -50.7 116.1 -44.3 115.7 -37.6C115.4 -30.9 111.7 -24.1 112.1 -17.8C112.5 -11.5 117.1 -5.7 121.7 0L0 0Z" fill="#545454"></path><path d="M0 -91.3C4.3 -88 8.6 -84.8 13.4 -84.4C18.1 -84.1 23.3 -86.6 27.9 -86C32.5 -85.4 36.6 -81.7 39.5 -77.5C42.4 -73.4 44.2 -68.7 48.7 -67C53.3 -65.4 60.6 -66.7 63.9 -63.9C67.2 -61.1 66.4 -54.2 68.9 -50C71.3 -45.8 76.9 -44.4 80.9 -41.2C84.8 -38 87.1 -33.2 86.8 -28.2C86.5 -23.2 83.8 -18 84.1 -13.3C84.4 -8.6 87.8 -4.3 91.3 0L0 0Z" fill="#333333"></path><path d="M0 -60.8C2.9 -58.7 5.8 -56.5 8.9 -56.3C12.1 -56 15.5 -57.7 18.6 -57.3C21.7 -56.9 24.4 -54.5 26.3 -51.7C28.3 -48.9 29.4 -45.8 32.5 -44.7C35.5 -43.6 40.4 -44.5 42.6 -42.6C44.8 -40.7 44.3 -36.1 45.9 -33.4C47.5 -30.6 51.3 -29.6 53.9 -27.5C56.5 -25.4 58 -22.1 57.9 -18.8C57.7 -15.5 55.8 -12 56.1 -8.9C56.3 -5.7 58.6 -2.9 60.8 0L0 0Z" fill="#161616"></path><path d="M0 -30.4C1.4 -29.3 2.9 -28.3 4.5 -28.1C6 -28 7.8 -28.9 9.3 -28.7C10.8 -28.5 12.2 -27.2 13.2 -25.8C14.1 -24.5 14.7 -22.9 16.2 -22.3C17.8 -21.8 20.2 -22.2 21.3 -21.3C22.4 -20.4 22.1 -18.1 23 -16.7C23.8 -15.3 25.6 -14.8 27 -13.7C28.3 -12.7 29 -11.1 28.9 -9.4C28.8 -7.7 27.9 -6 28 -4.4C28.1 -2.9 29.3 -1.4 30.4 0L0 0Z" fill="#000000"></path>
</g>

<g id="logo" transform="translate(450.000000, 300.000000) scale(10,10)">
<ellipse id="circle" ry="30" rx="43" cx="0" cy="0" fill="blue" filter="url(#f1)" />
<path class="cls-1" d="M144.4,89.31H113.1c-16.88,32.57,0,71.38,0,71.38h31.3C113.45,125.69,144.4,89.31,144.4,89.31Zm-13.17,63.76H119.58s-12.47-17.38,0-55.68h11.65S110.43,122.57,131.23,153.07Z" 
transform="translate(-88 -63) scale(0.5)" fill="0"/>
<path class="cls-1" d="M137.3,89.42,106,89.19c30.69,35.23-.52,71.39-.52,71.39l31.3.23C153.9,128.36,137.3,89.42,137.3,89.42Zm-7,63.25-11.64-.08s21-25,.41-55.68l11.65.09S143.11,114.47,130.35,152.67Z" 
transform="translate(-38 -63) scale(0.5)" fill="0"/>
</g>

<g transform="rotate(90) translate(215.000000, -315.000000) scale(0.0200000,-0.0200000)"
fill="#000000" stroke="none">
<path d="M3620 12399 c-927 -74 -1677 -387 -2238 -934 -239 -232 -404 -456
-538 -730 -342 -700 -363 -1595 -57 -2370 291 -736 869 -1419 1715 -2030 l138
-99 -248 -126 c-1507 -769 -2157 -1676 -2119 -2954 23 -788 326 -1421 907
-1897 560 -459 1280 -722 2200 -804 96 -8 299 -18 450 -22 1200 -26 2175 237
2904 786 675 508 1051 1164 1152 2006 20 172 23 568 5 740 -105 1001 -596
1833 -1553 2634 -196 163 -492 383 -701 521 -97 63 -176 117 -176 120 -1 3 61
36 137 74 179 89 385 207 547 313 806 529 1231 1132 1350 1913 22 146 31 468
16 611 -53 500 -254 922 -612 1279 -565 565 -1398 899 -2419 970 -169 11 -708
11 -860 -1z m763 -875 c474 -77 855 -333 1101 -741 172 -286 259 -675 243
-1083 -26 -629 -253 -1169 -721 -1715 -79 -93 -238 -255 -250 -255 -15 0 -302
177 -511 315 -852 565 -1333 1084 -1514 1635 -135 412 -114 851 57 1185 199
387 595 629 1104 674 130 12 371 4 491 -15z m-793 -5958 c675 -404 1214 -816
1548 -1186 439 -485 650 -1009 629 -1565 -16 -423 -151 -753 -420 -1027 -238
-244 -533 -395 -897 -459 -147 -27 -461 -36 -621 -20 -411 43 -742 176 -1026
414 -379 319 -608 778 -664 1331 -7 74 -10 199 -6 335 8 302 39 486 132 767
158 480 437 919 909 1427 127 136 139 146 159 136 12 -7 128 -75 257 -153z"/>
<animate attributeName="fill" values="black;white;black" dur="10s" repeatCount="indefinite" />
</g>
</svg>
