<?xml version="1.0" standalone="no"?>
<!DOCTYPE svg PUBLIC "-//W3C//DTD SVG 20010904//EN"
 "http://www.w3.org/TR/2001/REC-SVG-20010904/DTD/svg10.dtd">
<svg version="1.0" xmlns="http://www.w3.org/2000/svg" viewBox="0 0 500 500">

<g transform="translate(125.000000, 125.000000) scale(0.5,0.5)">

  <g id="logo" transform="translate(250.000000, 250.000000) scale(6,6)">
    <ellipse id="circle" ry="30" rx="43" cx="0" cy="0" fill="blue" filter="url(#f1)" />
    <path class="cls-1" d="M144.4,89.31H113.1c-16.88,32.57,0,71.38,0,71.38h31.3C113.45,125.69,144.4,89.31,144.4,89.31Zm-13.17,63.76H119.58s-12.47-17.38,0-55.68h11.65S110.43,122.57,131.23,153.07Z" 
    transform="translate(-88 -63) scale(0.5)" fill="0"/>
    <path class="cls-1" d="M137.3,89.42,106,89.19c30.69,35.23-.52,71.39-.52,71.39l31.3.23C153.9,128.36,137.3,89.42,137.3,89.42Zm-7,63.25-11.64-.08s21-25,.41-55.68l11.65.09S143.11,114.47,130.35,152.67Z" 
    transform="translate(-38 -63) scale(0.5)" fill="0"/>
  </g>

  <g id="infinity" fill="black" stroke="none">
    <defs>
      <g id="inf_sign" transform="rotate(90) translate(200.000000, -169.000000) scale(0.0120000,-0.0120000)">
        <path d="M3620 12399 c-927 -74 -1677 -387 -2238 -934 -239 -232 -404 -456
        -538 -730 -342 -700 -363 -1595 -57 -2370 291 -736 869 -1419 1715 -2030 l138
        -99 -248 -126 c-1507 -769 -2157 -1676 -2119 -2954 23 -788 326 -1421 907
        -1897 560 -459 1280 -722 2200 -804 96 -8 299 -18 450 -22 1200 -26 2175 237
        2904 786 675 508 1051 1164 1152 2006 20 172 23 568 5 740 -105 1001 -596
        1833 -1553 2634 -196 163 -492 383 -701 521 -97 63 -176 117 -176 120 -1 3 61
        36 137 74 179 89 385 207 547 313 806 529 1231 1132 1350 1913 22 146 31 468
        16 611 -53 500 -254 922 -612 1279 -565 565 -1398 899 -2419 970 -169 11 -708
        11 -860 -1z m763 -875 c474 -77 855 -333 1101 -741 172 -286 259 -675 243
        -1083 -26 -629 -253 -1169 -721 -1715 -79 -93 -238 -255 -250 -255 -15 0 -302
        177 -511 315 -852 565 -1333 1084 -1514 1635 -135 412 -114 851 57 1185 199
        387 595 629 1104 674 130 12 371 4 491 -15z m-793 -5958 c675 -404 1214 -816
        1548 -1186 439 -485 650 -1009 629 -1565 -16 -423 -151 -753 -420 -1027 -238
        -244 -533 -395 -897 -459 -147 -27 -461 -36 -621 -20 -411 43 -742 176 -1026
        414 -379 319 -608 778 -664 1331 -7 74 -10 199 -6 335 8 302 39 486 132 767
        158 480 437 919 909 1427 127 136 139 146 159 136 12 -7 128 -75 257 -153z"/>
      </g>
    </defs>

    <use href="#inf_sign" x="0" y="0" />
    <animate id="beat_min" attributeName="fill" from="white" to="black" dur="2s" begin="0;beat_max.end"/>
    <animate id="beat_max" attributeName="fill" from="black" to="white" dur="2s" begin="beat_min.end"/>

    <animateTransform attributeName="transform" type="translate" dur="4s" values="0,0; -120,-120; 0,0" repeatCount="indefinite"/>
    <animateTransform attributeName="transform" additive="sum" type="scale" dur="4s" values="1,1; 1.5,1.5; 1,1" repeatCount="indefinite"/>

  </g>

</g>

<g id="left_borders">

  <g transform="translate(-65,15) scale(1.6,1.6)"  fill-opacity="0.7" >
    <path
       class="cls-1"
       d="M 107.3179 117.5457 c -13.3985 25.8524 0 56.658 0 56.658 h 6.873 c -0.1535 -0.4067 -9.7724 -26.1184 0.0305 -56.2648 z"
       />
    <set attributeName="fill" to="white" fill="freeze" />
    <animate attributeName="fill" values="white;black;white" begin="beat_max.begin" dur="1s" />
  </g>

  <g transform="translate(-68,60) scale(1.3,1.3)"  fill-opacity="0.35" >
    <path
       class="cls-1"
       d="M 107.3179 117.5457 c -13.3985 25.8524 0 56.658 0 56.658 h 6.873 c -0.1535 -0.4067 -9.7724 -26.1184 0.0305 -56.2648 z"
       />
    <set attributeName="fill" to="white" fill="freeze" />
    <animate attributeName="fill" values="white;black;white" begin="beat_max.begin + 0.2s" dur="1s" />
  </g>

  <g transform="translate(-62,104) scale(1,1)"  fill-opacity="0.05" >
    <path
       class="cls-1"
       d="M 107.3179 117.5457 c -13.3985 25.8524 0 56.658 0 56.658 h 6.873 c -0.1535 -0.4067 -9.7724 -26.1184 0.0305 -56.2648 z"
       />
    <set attributeName="fill" to="white" fill="freeze" />
    <animate attributeName="fill" values="white;black;white" begin="beat_max.begin + 0.4s" dur="1s" />
  </g>

  <g transform="translate(-50,148) scale(0.7,0.7)"  fill-opacity="0.02" >
    <path
       class="cls-1"
       d="M 107.3179 117.5457 c -13.3985 25.8524 0 56.658 0 56.658 h 6.873 c -0.1535 -0.4067 -9.7724 -26.1184 0.0305 -56.2648 z"
       />
    <set attributeName="fill" to="white" fill="freeze" />
    <animate attributeName="fill" values="white;black;white" begin="beat_max.begin + 0.6s" dur="1s" />
  </g>

  <g transform="translate(-20,205) scale(0.3,0.3)"  fill-opacity="0.01" >
    <path
       class="cls-1"
       d="M 107.3179 117.5457 c -13.3985 25.8524 0 56.658 0 56.658 h 6.873 c -0.1535 -0.4067 -9.7724 -26.1184 0.0305 -56.2648 z"
       />
    <set attributeName="fill" to="white" fill="freeze" />
    <animate attributeName="fill" values="white;black;white" begin="beat_max.begin + 0.8s" dur="1s" />
  </g>

</g>

<use href="#left_borders" x="-500" y="-500" transform="rotate(180)"/>

</svg>
