<svg fill="none" xmlns="http://www.w3.org/2000/svg" xmlns:xlink="http://www.w3.org/1999/xlink" width="500" height="500" style="background-color:#b54c66"><path id="spiral" stroke-dasharray="6434" stroke-dashoffset="6434" stroke="#07774d" stroke-width="7" d="M250,250 a5,2 0 1,1 18,0 5,2 0 1,1 -27,0 5,2 0 1,1 36,0 5,2 0 1,1 -45,0 5,2 0 1,1 54,0 5,2 0 1,1 -63,0 5,2 0 1,1 72,0 5,2 0 1,1 -81,0 5,2 0 1,1 90,0 5,2 0 1,1 -99,0 5,2 0 1,1 108,0 5,2 0 1,1 -117,0 5,2 0 1,1 126,0 5,2 0 1,1 -135,0 5,2 0 1,1 144,0 5,2 0 1,1 -153,0 5,2 0 1,1 162,0 5,2 0 1,1 -171,0 5,2 0 1,1 180,0 5,2 0 1,1 -189,0 5,2 0 1,1 198,0 5,2 0 1,1 -207,0 5,2 0 1,1 216,0 5,2 0 1,1 -225,0 5,2 0 1,1 234,0 5,2 0 1,1 -243,0 5,2 0 1,1 252,0 5,2 0 1,1 -261,0 5,2 0 1,1 270,0 5,2 0 1,1 -279,0 5,2 0 1,1 288,0 5,2 0 1,1 -297,0 5,2 0 1,1 306,0 5,2 0 1,1 -315,0 5,2 0 1,1 324,0 5,2 0 1,1 -333,0 5,2 0 1,1 342,0 5,2 0 1,1 -351,0 5,0"><animate begin="start.begin" attributeType="XML" attributeName="stroke" to="#07774d" dur="0.3s" fill="freeze" /><animate id="step1" begin="start.begin+0.5s" attributeType="XML" attributeName="stroke-dashoffset"  to="0" dur="3s" fill="freeze" /><animate id="step2" begin="step1.end+0.5s" attributeType="XML" attributeName="stroke-dasharray" to="0" dur="3s" fill="freeze" /><animate begin="start.begin+6.5s" attributeType="XML" attributeName="stroke" to="#6c7b58" dur="0.3s" fill="freeze" /><animate id="step3" begin="step2.end+1s" attributeType="XML" attributeName="stroke-dasharray" to="1608" dur="3s" fill="freeze" /><animate id="step4" begin="step3.end+0.5s" attributeType="XML" attributeName="stroke-dashoffset" to="6434" dur="3s" fill="freeze" /><animate begin="start.begin+13s" attributeType="XML" attributeName="stroke" to="#d10060" dur="0.3s" fill="freeze" /><animate id="step5" begin="step4.end+0.5s" attributeType="XML" attributeName="stroke-dasharray" to="3217" dur="3s" fill="freeze" /><animate id="step6" begin="step5.end+0.5s" attributeType="XML" attributeName="stroke-dasharray" to="6434" dur="3s" fill="freeze" /></path><path id="spiral" stroke-dasharray="0" stroke-dashoffset="0" stroke="#0000ff" stroke-width="7" d="M250,250 a5,2 0 1,1 18,0 5,2 0 1,1 -27,0 5,2 0 1,1 36,0 5,2 0 1,1 -45,0 5,2 0 1,1 54,0 5,2 0 1,1 -63,0 5,2 0 1,1 72,0 5,2 0 1,1 -81,0 5,2 0 1,1 90,0 5,2 0 1,1 -99,0 5,2 0 1,1 108,0 5,2 0 1,1 -117,0 5,2 0 1,1 126,0 5,2 0 1,1 -135,0 5,2 0 1,1 144,0 5,2 0 1,1 -153,0 5,2 0 1,1 162,0 5,2 0 1,1 -171,0 5,2 0 1,1 180,0 5,2 0 1,1 -189,0 5,2 0 1,1 198,0 5,2 0 1,1 -207,0 5,2 0 1,1 216,0 5,2 0 1,1 -225,0 5,2 0 1,1 234,0 5,2 0 1,1 -243,0 5,2 0 1,1 252,0 5,2 0 1,1 -261,0 5,2 0 1,1 270,0 5,2 0 1,1 -279,0 5,2 0 1,1 288,0 5,2 0 1,1 -297,0 5,2 0 1,1 306,0 5,2 0 1,1 -315,0 5,2 0 1,1 324,0 5,2 0 1,1 -333,0 5,2 0 1,1 342,0 5,2 0 1,1 -351,0 5,0"><animate id="start" attributeType="XML" attributeName="stroke" begin="0.5s;end.end+0.5s" to="#0000ff" dur="28.5s" fill="freeze" /><animate attributeType="XML" attributeName="stroke-dashoffset" begin="start.begin" to="6434" dur="28s" fill="freeze" /><animate attributeType="XML" attributeName="stroke-dasharray" begin="start.begin" to="6434" dur="28s" fill="freeze" /><animate attributeType="XML" attributeName="stroke-dashoffset" begin="step6.end+1" to="0" dur="0.3s" fill="freeze" /><animate id="end" attributeType="XML" attributeName="stroke-dasharray" begin="step6.end+1" to="0" dur="0.3s" fill="freeze" /></path></svg>
