<svg id="Layer_1" data-name="Layer 1" xmlns="http://www.w3.org/2000/svg" width="465" height="475.98" viewBox="0 0 465 475.98"><path d="M11.82,14.25V12.94a4.63,4.63,0,0,0,1.31-.54,3.86,3.86,0,0,0,1-.88,3.74,3.74,0,0,0,.64-1.18A4.32,4.32,0,0,0,15,8.92a4.1,4.1,0,0,0-1.41-3.17A4.64,4.64,0,0,0,12,4.84a5.87,5.87,0,0,0-2-.33,5.87,5.87,0,0,0-2,.33,4.64,4.64,0,0,0-1.58.91A4.1,4.1,0,0,0,5,8.92a4.32,4.32,0,0,0,.22,1.42,3.93,3.93,0,0,0,.63,1.18,4,4,0,0,0,1,.88,4.63,4.63,0,0,0,1.31.54v1.31H5V15a.45.45,0,0,0,.14.35.53.53,0,0,0,.36.13H9.32V12.17a4.82,4.82,0,0,1-1.13-.36,2.78,2.78,0,0,1-.89-.64,2.62,2.62,0,0,1-.58-.93A3.39,3.39,0,0,1,6.51,9a3.54,3.54,0,0,1,.26-1.43,2.76,2.76,0,0,1,.73-1,3.07,3.07,0,0,1,1.1-.63,4.77,4.77,0,0,1,2.8,0,3.07,3.07,0,0,1,1.1.63,2.76,2.76,0,0,1,.73,1A3.54,3.54,0,0,1,13.49,9a3.39,3.39,0,0,1-.21,1.24,2.76,2.76,0,0,1-.58.93,3,3,0,0,1-.89.64,4.82,4.82,0,0,1-1.13.36v3.32H14.5a.53.53,0,0,0,.36-.13A.48.48,0,0,0,15,15v-.76Z" transform="translate(-5 -4.51)"/><path d="M466.82,479.25v-1.31a4.63,4.63,0,0,0,1.31-.54,3.86,3.86,0,0,0,1-.88,3.74,3.74,0,0,0,.64-1.18,4.32,4.32,0,0,0,.22-1.42,4.1,4.1,0,0,0-1.41-3.17,4.64,4.64,0,0,0-1.58-.91,6.23,6.23,0,0,0-4,0,4.64,4.64,0,0,0-1.58.91,4.1,4.1,0,0,0-1.41,3.17,4.32,4.32,0,0,0,.22,1.42,3.93,3.93,0,0,0,.63,1.18,4,4,0,0,0,1,.88,4.63,4.63,0,0,0,1.31.54v1.31H460V480a.45.45,0,0,0,.14.35.53.53,0,0,0,.36.13h3.82v-3.32a4.82,4.82,0,0,1-1.13-.36,2.78,2.78,0,0,1-.89-.64,2.62,2.62,0,0,1-.58-.93,3.39,3.39,0,0,1-.21-1.24,3.54,3.54,0,0,1,.26-1.43,2.76,2.76,0,0,1,.73-1,3.07,3.07,0,0,1,1.1-.63,4.77,4.77,0,0,1,2.8,0,3.07,3.07,0,0,1,1.1.63,2.76,2.76,0,0,1,.73,1,3.54,3.54,0,0,1,.26,1.43,3.39,3.39,0,0,1-.21,1.24,2.76,2.76,0,0,1-.58.93,3,3,0,0,1-.89.64,4.82,4.82,0,0,1-1.13.36v3.32h3.82a.53.53,0,0,0,.36-.13A.48.48,0,0,0,470,480v-.76Z" transform="translate(-5 -4.51)"/></svg>