<svg xmlns="http://www.w3.org/2000/svg" xmlns:xlink="http://www.w3.org/1999/xlink" width="500" height="500" viewbox="0 0 500 500" style="background-color:#111111"><g fill-opacity="0.3"><circle fill="#c0c0c0" cx="150" cy="1" r="271" stroke="#CD7F32"/><rect fill="#e5e4e2" x="153" y="226" width="512" height="634" transform="rotate(17)" stroke="#CD7F32"/><rect fill="#c0c0c0" x="107" y="246" width="752" height="772" transform="rotate(185)" stroke="#CD7F32"/><circle fill="#c0c0c0" cx="191" cy="201" r="271" stroke="#CD7F32"/><circle fill="#e5e4e2" cx="185" cy="381" r="289" stroke="#CD7F32"/><rect fill="#c0c0c0" x="220" y="124" width="642" height="528" transform="rotate(17)" stroke="#CD7F32"/><circle fill="#c0c0c0" cx="247" cy="389" r="345" stroke="#CD7F32"/><circle fill="#c0c0c0" cx="455" cy="177" r="284" stroke="#CD7F32"/><rect fill="#e5e4e2" x="125" y="136" width="628" height="710" transform="rotate(241)" stroke="#CD7F32"/><rect fill="#c0c0c0" x="94" y="124" width="630" height="628" transform="rotate(185)" stroke="#CD7F32"/><rect fill="#c0c0c0" x="151" y="144" width="534" height="532" transform="rotate(241)" stroke="#CD7F32"/><rect fill="#c0c0c0" x="38" y="138" width="748" height="764" transform="rotate(17)" stroke="#CD7F32"/><rect fill="#e5e4e2" x="15" y="224" width="628" height="520" transform="rotate(129)" stroke="#CD7F32"/><circle fill="#e5e4e2" cx="389" cy="193" r="365" stroke="#CD7F32"/><circle fill="#e5e4e2" cx="354" cy="129" r="307" stroke="#CD7F32"/></g><g id="infinity_1"><path id="infinity" stroke-dasharray="0" stroke-dashoffset="0" stroke-width="16" d="M195.5 248c0 30 37.5 30 52.5 0s 52.5-30 52.5 0s-37.5 30-52.5 0s-52.5-30-52.5 0" fill="none"><animate begin="s.begin" attributeType="XML" attributeName="stroke"  values="white;#C0C0C0;white" dur="4s" fill="freeze"/><animate begin="s.begin" attributeType="XML" attributeName="stroke-dasharray" values="0;50;0" dur="6s" fill="freeze"/><animate begin="a.begin" attributeType="XML" attributeName="stroke-width" values="16;20;16" dur="1s" fill="freeze"/></path><path id="infinity_2" stroke-dasharray="300" stroke-dashoffset="300" stroke="#FFFFFF" stroke-width="16" d="M195.5 248c0 30 37.5 30 52.5 0s 52.5-30 52.5 0s-37.5 30-52.5 0s-52.5-30-52.5 0" fill="none"><animate begin="s.begin" attributeType="XML" attributeName="stroke" values="#CD7F32;white;#CD7F32" dur="4s" fill="freeze"/><animate id="a" begin="s.begin;s.begin+1s;s.begin+2s;s.begin+3s;s.begin+4s;s.begin+5s;s.begin+6s" attributeType="XML" attributeName="stroke-width" values="16;20;16" dur="1s" fill="freeze" /><animate id="s" attributeType="XML" attributeName="stroke-dashoffset" begin="0s;s.end" to= "-1800" dur="6s"  /></path></g><g id="b"><path d="M194 179H131c-34 65 0 143 0 143h63C132 251 194 179 194 179Zm-26 128H144s-25-35 0-111h23S126 245 168 307Z" stroke="black" fill-opacity="0.9" stroke-width=".7"><animate id="p" begin="s.begin+2s" attributeName="fill" values="black;#c0c0c0;black" dur="2s"/><animate id="q" begin="s.begin+4s" attributeName="fill" values="black;#e5e4e2;black" dur="2s" /><animate id="r" begin="s.begin+6s" attributeName="fill" values="black;#c0c0c0;black" dur="2s" /><set attributeName="stroke-dasharray" to="20"/><set attributeName="stroke-width" to="2"/><animate begin="s.begin;s.end" attributeType="XML" attributeName="stroke-dashoffset" from="0" to="280" dur="6s" fill="freeze" /><animate begin="s.begin;s.end" attributeType="XML" attributeName="stroke" values="#decf62;#9a44c3;#55ba24;#decf62" dur="6s" fill="freeze" /></path><text x="10" y="25" fill="black" >SILVER</text><path d="M90 203c-21 41 0 91 0 91h11c0 0-16-42 0-91z" stroke-opacity=".7" fill-opacity=".7" fill="transparent"><animate id="w" attributeName="fill" values="transparent;black;transparent" begin="p.begin+.4s;q.begin+.4s;r.begin+.4s" dur="1s"/><animate begin="w.begin" attributeName="stroke" values="transparent;black;transparent" dur="1s"/></path><path d="M60 212c-17 34 0 74 0 74h9c0-1-13-34 0-74z" stroke-opacity=".35" fill-opacity=".5" fill="transparent"><animate attributeName="fill" values="transparent;white;transparent" begin="w.begin+.2s" dur="1s"/><animate attributeName="stroke" values="transparent;black;transparent" begin="w.begin+.2s" dur="1s"/></path><path d="M37 221c-13 26 0 57 0 57h7c0 0-10-26 0-57z" stroke-opacity=".05" fill-opacity="0.3" fill="transparent"><animate attributeName="fill" values="transparent;white;transparent" begin="w.begin+.4s" dur="1s"/><animate attributeName="stroke" values="transparent;black;transparent" begin="w.begin+.4s" dur="1s"/></path></g><use href="#b" x="-500" y="-500" transform="rotate(180)"/></svg>
