<svg xmlns="http://www.w3.org/2000/svg" xmlns:xlink="http://www.w3.org/1999/xlink" width="500" height="500" viewbox="0 0 500 500" style="background-color:#111111"><g fill-opacity="0.3"><rect fill="#c0c0c0" x="66" y="116" width="668" height="796" transform="rotate(153)" stroke="#FFFFFF"/><rect fill="#c0c0c0" x="213" y="6" width="738" height="602" transform="rotate(73)" stroke="#FFFFFF"/><circle fill="#c0c0c0" cx="500" cy="105" r="274" stroke="#FFFFFF"/><rect fill="#c0c0c0" x="9" y="102" width="710" height="542" transform="rotate(49)" stroke="#FFFFFF"/><circle fill="#c0c0c0" cx="11" cy="305" r="379" stroke="#FFFFFF"/><rect fill="#e5e4e2" x="192" y="38" width="738" height="684" transform="rotate(217)" stroke="#FFFFFF"/><rect fill="#c0c0c0" x="182" y="150" width="582" height="558" transform="rotate(281)" stroke="#FFFFFF"/><circle fill="#e5e4e2" cx="472" cy="277" r="347" stroke="#FFFFFF"/><rect fill="#c0c0c0" x="59" y="10" width="688" height="514" transform="rotate(49)" stroke="#FFFFFF"/><circle fill="#c0c0c0" cx="298" cy="409" r="313" stroke="#FFFFFF"/><circle fill="#c0c0c0" cx="200" cy="429" r="310" stroke="#FFFFFF"/><circle fill="#e5e4e2" cx="50" cy="161" r="347" stroke="#FFFFFF"/><circle fill="#c0c0c0" cx="25" cy="245" r="312" stroke="#FFFFFF"/><rect fill="#e5e4e2" x="66" y="32" width="674" height="634" transform="rotate(97)" stroke="#FFFFFF"/><rect fill="#c0c0c0" x="150" y="72" width="696" height="638" transform="rotate(161)" stroke="#FFFFFF"/></g><g id="infinity_1"><path id="infinity" stroke-dasharray="0" stroke-dashoffset="0" stroke-width="16" d="M195.5 248c0 30 37.5 30 52.5 0s 52.5-30 52.5 0s-37.5 30-52.5 0s-52.5-30-52.5 0" fill="none"><animate begin="s.begin" attributeType="XML" attributeName="stroke"  values="white;#C0C0C0;white" dur="4s" fill="freeze"/><animate begin="s.begin" attributeType="XML" attributeName="stroke-dasharray" values="0;50;0" dur="6s" fill="freeze"/><animate begin="a.begin" attributeType="XML" attributeName="stroke-width" values="16;20;16" dur="1s" fill="freeze"/></path><path id="infinity_2" stroke-dasharray="300" stroke-dashoffset="300" stroke="#FFFFFF" stroke-width="16" d="M195.5 248c0 30 37.5 30 52.5 0s 52.5-30 52.5 0s-37.5 30-52.5 0s-52.5-30-52.5 0" fill="none"><animate begin="s.begin" attributeType="XML" attributeName="stroke" values="#CD7F32;white;#CD7F32" dur="4s" fill="freeze"/><animate id="a" begin="s.begin;s.begin+1s;s.begin+2s;s.begin+3s;s.begin+4s;s.begin+5s;s.begin+6s" attributeType="XML" attributeName="stroke-width" values="16;20;16" dur="1s" fill="freeze" /><animate id="s" attributeType="XML" attributeName="stroke-dashoffset" begin="0s;s.end" to= "-1800" dur="6s"  /></path></g><g id="b"><path d="M194 179H131c-34 65 0 143 0 143h63C132 251 194 179 194 179Zm-26 128H144s-25-35 0-111h23S126 245 168 307Z" stroke="black" fill-opacity="0.9" stroke-width=".7"><animate id="p" begin="s.begin+2s" attributeName="fill" values="black;#c0c0c0;black" dur="2s"/><animate id="q" begin="s.begin+4s" attributeName="fill" values="black;#e5e4e2;black" dur="2s" /><animate id="r" begin="s.begin+6s" attributeName="fill" values="black;#c0c0c0;black" dur="2s" /><set attributeName="stroke-dasharray" to="20"/><set attributeName="stroke-width" to="2"/><animate begin="s.begin;s.end" attributeType="XML" attributeName="stroke-dashoffset" from="0" to="280" dur="6s" fill="freeze" /><animate begin="s.begin;s.end" attributeType="XML" attributeName="stroke" values="#547b0f;#0fe9f1;#cb58d2;#547b0f" dur="6s" fill="freeze" /></path><text x="10" y="25" fill="black" >SILVER</text><path d="M90 203c-21 41 0 91 0 91h11c0 0-16-42 0-91z" stroke-opacity=".7" fill-opacity=".7" fill="transparent"><animate id="w" attributeName="fill" values="transparent;black;transparent" begin="p.begin+.4s;q.begin+.4s;r.begin+.4s" dur="1s"/><animate begin="w.begin" attributeName="stroke" values="transparent;black;transparent" dur="1s"/></path><path d="M60 212c-17 34 0 74 0 74h9c0-1-13-34 0-74z" stroke-opacity=".35" fill-opacity=".5" fill="transparent"><animate attributeName="fill" values="transparent;white;transparent" begin="w.begin+.2s" dur="1s"/><animate attributeName="stroke" values="transparent;black;transparent" begin="w.begin+.2s" dur="1s"/></path><path d="M37 221c-13 26 0 57 0 57h7c0 0-10-26 0-57z" stroke-opacity=".05" fill-opacity="0.3" fill="transparent"><animate attributeName="fill" values="transparent;white;transparent" begin="w.begin+.4s" dur="1s"/><animate attributeName="stroke" values="transparent;black;transparent" begin="w.begin+.4s" dur="1s"/></path></g><use href="#b" x="-500" y="-500" transform="rotate(180)"/></svg>
