<?xml version='1.0' encoding='iso-8859-1'?>
<svg  xmlns='http://www.w3.org/2000/svg' xmlns:xlink='http://www.w3.org/1999/xlink' width='500' height='500' viewbox='0 0 500 500' style='background-color:#111111'>
<g fill-opacity='0.3'>
<rect fill = '#1fb9f3' x = '174.0' y = '193.0' width='538' height='724'
                    transform = 'rotate(19)'/>
<circle fill = '#1fb9f3' cx='216' cy='274' r = '349'/>
<rect fill = '#0b0b02' x = '49.5' y = '72.5' width='796' height='544'
                    transform = 'rotate(305)'/>
<circle fill = '#0b0b02' cx='429' cy='362' r = '254'/>
<circle fill = '#0b0b02' cx='102' cy='239' r = '355'/>
<rect fill = '#f8f5ef' x = '86.0' y = '108.5' width='654' height='562'
                    transform = 'rotate(151)'/>
<circle fill = '#0b0b02' cx='415' cy='385' r = '358'/>
<circle fill = '#0b0b02' cx='158' cy='457' r = '339'/>
<circle fill = '#0b0b02' cx='325' cy='166' r = '289'/>
<rect fill = '#1fb9f3' x = '14.0' y = '19.5' width='616' height='540'
                    transform = 'rotate(287)'/>
<circle fill = '#f8f5ef' cx='124' cy='258' r = '255'/>
<circle fill = '#1fb9f3' cx='78' cy='352' r = '293'/>
<circle fill = '#0b0b02' cx='366' cy='242' r = '385'/>
<rect fill = '#1fb9f3' x = '237.5' y = '90.5' width='592' height='756'
                    transform = 'rotate(24)'/>
<rect fill = '#1fb9f3' x = '77.0' y = '135.0' width='696' height='774'
                    transform = 'rotate(320)'/>
<rect fill = '#1fb9f3' x = '125.0' y = '226.0' width='778' height='646'
                    transform = 'rotate(287)'/>
<circle fill = '#f8f5ef' cx='310' cy='190' r = '383'/>
<circle fill = '#0b0b02' cx='175' cy='441' r = '379'/>
<rect fill = '#1fb9f3' x = '40.5' y = '32.0' width='736' height='690'
                    transform = 'rotate(289)'/>
</g>

        <g>
        <path stroke-dasharray="0" stroke-dashoffset="0" stroke-width="16" d="M195.5 248c0 30 37.5 30 52.5 0s 52.5-30 52.5 0s-37.5 30-52.5 0s-52.5-30-52.5 0" fill="none">
        <animate begin="s.begin" attributeType="XML" attributeName="stroke" values="#1fb9f3;#0b0b02;#1fb9f3" dur="4s" fill="freeze"/>
        <animate begin="s.begin" attributeType="XML" attributeName="stroke-dasharray" values="0;50;0" dur="6s" fill="freeze"/>
        <animate begin="a.begin" attributeType="XML" attributeName="stroke-width" values="16;20;16" dur="1s" fill="freeze"/>
        </path><path stroke-dasharray="300" stroke-dashoffset="300" stroke-width="16" d="M195.5 248c0 30 37.5 30 52.5 0s 52.5-30 52.5 0s-37.5 30-52.5 0s-52.5-30-52.5 0" fill="none">
        <animate begin="s.begin" attributeType="XML" attributeName="stroke" values="#1fb9f3;#f8f5ef;#1fb9f3" dur="4s" fill="freeze"/>
        <animate id="a" begin="s.begin;a.end" attributeType="XML" attributeName="stroke-width" values="16;20;16" dur="1s" fill="freeze"/>
        <animate id="s" attributeType="XML" attributeName="stroke-dashoffset" begin="0s;s.end" to= "-1800" dur="6s"/></path></g><g id="147b">
        <path d="M194 179H131c-34 65 0 143 0 143h63C132 251 194 179 194 179Zm-26 128H144s-25-35 0-111h23S126 245 168 307Z" stroke="black" fill-opacity="0.9" stroke-width="0.7">
        <animate begin="s.begin" attributeName="fill" dur="6s" values="black;#1fb9f3;black;#0b0b02;black;#f8f5ef;black"/>
        </path>
        <text x="2" y="40" font-size="3em" fill-opacity="0.3" fill="black">    </text>
        <path d="M90 203c-21 41 0 91 0 91h11c0 0-16-42 0-91z" stroke-opacity="0.7" fill-opacity="0.7" fill="transparent">
        <animate id="w" attributeName="fill" values="transparent;white;transparent" begin="s.begin+.17s;s.begin+2.17s;s.begin+4.17s" dur="1s"/>
        <animate begin="w.begin" attributeName="stroke" values="transparent;black;transparent" dur="1s"/>
        </path><path d="M60 212c-17 34 0 74 0 74h9c0-1-13-34 0-74z" stroke-opacity="0.5" fill-opacity="0.5" fill="transparent"
        ><animate attributeName="fill" values="transparent;white;transparent" begin="w.begin+0.2s" dur="1s"/>
        <animate attributeName="stroke" values="transparent;black;transparent" begin="w.begin+0.2s" dur="1s"/>
        </path>
        <path d="M37 221c-13 26 0 57 0 57h7c0 0-10-26 0-57z" stroke-opacity="0.3" fill-opacity="0.3" fill="transparent">
        <animate attributeName="fill" values="transparent;white;transparent" begin="w.begin+0.4s" dur="1s"/>
        <animate attributeName="stroke" values="transparent;black;transparent" begin="w.begin+0.4s" dur="1s"/>
        </path></g><use href="#147b" x="-500" y="-500" transform="rotate(180)"/>
</svg>