<?xml version='1.0' encoding='iso-8859-1'?>
<svg  xmlns='http://www.w3.org/2000/svg' xmlns:xlink='http://www.w3.org/1999/xlink' width='500' height='500' viewbox='0 0 500 500' style='background-color:#111111'>
<g fill-opacity='0.3'>
<rect fill = '#f8f5ef' x = '108.0' y = '182.0' width='560' height='588'
                    transform = 'rotate(174)'/>
<rect fill = '#f8f5ef' x = '11.0' y = '5.5' width='720' height='760'
                    transform = 'rotate(322)'/>
<circle fill = '#4d64fb' cx='361' cy='437' r = '359'/>
<circle fill = '#0b0b02' cx='263' cy='132' r = '259'/>
<circle fill = '#f8f5ef' cx='267' cy='134' r = '388'/>
<circle fill = '#4d64fb' cx='307' cy='154' r = '288'/>
<circle fill = '#4d64fb' cx='99' cy='50' r = '367'/>
<circle fill = '#4d64fb' cx='49' cy='25' r = '384'/>
<circle fill = '#f8f5ef' cx='393' cy='453' r = '294'/>
<rect fill = '#4d64fb' x = '112.0' y = '56.0' width='610' height='554'
                    transform = 'rotate(14)'/>
<rect fill = '#4d64fb' x = '193.0' y = '96.5' width='600' height='760'
                    transform = 'rotate(217)'/>
<rect fill = '#f8f5ef' x = '78.0' y = '167.0' width='740' height='528'
                    transform = 'rotate(234)'/>
<rect fill = '#f8f5ef' x = '207.0' y = '103.5' width='614' height='556'
                    transform = 'rotate(346)'/>
<rect fill = '#4d64fb' x = '182.0' y = '91.0' width='680' height='800'
                    transform = 'rotate(151)'/>
<circle fill = '#0b0b02' cx='19' cy='10' r = '334'/>
</g>

        <g>
        <path stroke-dasharray="0" stroke-dashoffset="0" stroke-width="16" d="M195.5 248c0 30 37.5 30 52.5 0s 52.5-30 52.5 0s-37.5 30-52.5 0s-52.5-30-52.5 0" fill="none">
        <animate begin="s.begin" attributeType="XML" attributeName="stroke" values="#4d64fb;#0b0b02;#4d64fb" dur="4s" fill="freeze"/>
        <animate begin="s.begin" attributeType="XML" attributeName="stroke-dasharray" values="0;50;0" dur="6s" fill="freeze"/>
        <animate begin="a.begin" attributeType="XML" attributeName="stroke-width" values="16;20;16" dur="1s" fill="freeze"/>
        </path><path stroke-dasharray="300" stroke-dashoffset="300" stroke-width="16" d="M195.5 248c0 30 37.5 30 52.5 0s 52.5-30 52.5 0s-37.5 30-52.5 0s-52.5-30-52.5 0" fill="none">
        <animate begin="s.begin" attributeType="XML" attributeName="stroke" values="#4d64fb;#f8f5ef;#4d64fb" dur="4s" fill="freeze"/>
        <animate id="a" begin="s.begin;a.end" attributeType="XML" attributeName="stroke-width" values="16;20;16" dur="1s" fill="freeze"/>
        <animate id="s" attributeType="XML" attributeName="stroke-dashoffset" begin="0s;s.end" to= "-1800" dur="6s"/></path></g><g id="147b">
        <path d="M194 179H131c-34 65 0 143 0 143h63C132 251 194 179 194 179Zm-26 128H144s-25-35 0-111h23S126 245 168 307Z" stroke="black" fill-opacity="0.9" stroke-width="0.7">
        <animate begin="s.begin" attributeName="fill" dur="6s" values="black;#4d64fb;black;#0b0b02;black;#f8f5ef;black"/>
        </path>
        <text x="2" y="40" font-size="3em" fill-opacity="0.3" fill="black">    </text>
        <path d="M90 203c-21 41 0 91 0 91h11c0 0-16-42 0-91z" stroke-opacity="0.7" fill-opacity="0.7" fill="transparent">
        <animate id="w" attributeName="fill" values="transparent;white;transparent" begin="s.begin+.17s;s.begin+2.17s;s.begin+4.17s" dur="1s"/>
        <animate begin="w.begin" attributeName="stroke" values="transparent;black;transparent" dur="1s"/>
        </path><path d="M60 212c-17 34 0 74 0 74h9c0-1-13-34 0-74z" stroke-opacity="0.5" fill-opacity="0.5" fill="transparent"
        ><animate attributeName="fill" values="transparent;white;transparent" begin="w.begin+0.2s" dur="1s"/>
        <animate attributeName="stroke" values="transparent;black;transparent" begin="w.begin+0.2s" dur="1s"/>
        </path>
        <path d="M37 221c-13 26 0 57 0 57h7c0 0-10-26 0-57z" stroke-opacity="0.3" fill-opacity="0.3" fill="transparent">
        <animate attributeName="fill" values="transparent;white;transparent" begin="w.begin+0.4s" dur="1s"/>
        <animate attributeName="stroke" values="transparent;black;transparent" begin="w.begin+0.4s" dur="1s"/>
        </path></g><use href="#147b" x="-500" y="-500" transform="rotate(180)"/>
</svg>