<?xml version='1.0' encoding='iso-8859-1'?>
<svg  xmlns='http://www.w3.org/2000/svg' xmlns:xlink='http://www.w3.org/1999/xlink' width='500' height='500' viewbox='0 0 500 500' style='background-color:#111111'>
<g fill-opacity='0.3'>
<circle fill = '#f8f5ef' cx='47' cy='238' r = '256'/>
<rect fill = '#1fb9f3' x = '50.5' y = '55.5' width='564' height='666'
                    transform = 'rotate(338)'/>
<rect fill = '#f8f5ef' x = '249.5' y = '166.0' width='756' height='636'
                    transform = 'rotate(107)'/>
<rect fill = '#f8f5ef' x = '41.5' y = '110.0' width='712' height='572'
                    transform = 'rotate(218)'/>
<rect fill = '#f8f5ef' x = '118.5' y = '174.0' width='568' height='606'
                    transform = 'rotate(18)'/>
<rect fill = '#f8f5ef' x = '10.0' y = '126.0' width='698' height='776'
                    transform = 'rotate(60)'/>
<rect fill = '#f8f5ef' x = '136.0' y = '117.5' width='618' height='540'
                    transform = 'rotate(65)'/>
<circle fill = '#f8f5ef' cx='32' cy='328' r = '361'/>
<rect fill = '#0b0b02' x = '158.0' y = '139.0' width='562' height='766'
                    transform = 'rotate(272)'/>
<circle fill = '#0b0b02' cx='345' cy='38' r = '277'/>
<circle fill = '#1fb9f3' cx='202' cy='85' r = '259'/>
<rect fill = '#1fb9f3' x = '47.5' y = '64.0' width='554' height='608'
                    transform = 'rotate(236)'/>
<circle fill = '#1fb9f3' cx='336' cy='37' r = '300'/>
<circle fill = '#f8f5ef' cx='409' cy='433' r = '265'/>
<rect fill = '#0b0b02' x = '104.0' y = '80.0' width='778' height='606'
                    transform = 'rotate(278)'/>
</g>

        <g>
        <path stroke-dasharray="0" stroke-dashoffset="0" stroke-width="16" d="M195.5 248c0 30 37.5 30 52.5 0s 52.5-30 52.5 0s-37.5 30-52.5 0s-52.5-30-52.5 0" fill="none">
        <animate begin="s.begin" attributeType="XML" attributeName="stroke" values="#1fb9f3;#0b0b02;#1fb9f3" dur="4s" fill="freeze"/>
        <animate begin="s.begin" attributeType="XML" attributeName="stroke-dasharray" values="0;50;0" dur="6s" fill="freeze"/>
        <animate begin="a.begin" attributeType="XML" attributeName="stroke-width" values="16;20;16" dur="1s" fill="freeze"/>
        </path><path stroke-dasharray="300" stroke-dashoffset="300" stroke-width="16" d="M195.5 248c0 30 37.5 30 52.5 0s 52.5-30 52.5 0s-37.5 30-52.5 0s-52.5-30-52.5 0" fill="none">
        <animate begin="s.begin" attributeType="XML" attributeName="stroke" values="#1fb9f3;#f8f5ef;#1fb9f3" dur="4s" fill="freeze"/>
        <animate id="a" begin="s.begin;a.end" attributeType="XML" attributeName="stroke-width" values="16;20;16" dur="1s" fill="freeze"/>
        <animate id="s" attributeType="XML" attributeName="stroke-dashoffset" begin="0s;s.end" to= "-1800" dur="6s"/></path></g><g id="147b">
        <path d="M194 179H131c-34 65 0 143 0 143h63C132 251 194 179 194 179Zm-26 128H144s-25-35 0-111h23S126 245 168 307Z" stroke="black" fill-opacity="0.9" stroke-width="0.7">
        <animate begin="s.begin" attributeName="fill" dur="6s" values="black;#1fb9f3;black;#0b0b02;black;#f8f5ef;black"/>
        </path>
        <text x="2" y="40" font-size="3em" fill-opacity="0.3" fill="black">    </text>
        <path d="M90 203c-21 41 0 91 0 91h11c0 0-16-42 0-91z" stroke-opacity="0.7" fill-opacity="0.7" fill="transparent">
        <animate id="w" attributeName="fill" values="transparent;white;transparent" begin="s.begin+.17s;s.begin+2.17s;s.begin+4.17s" dur="1s"/>
        <animate begin="w.begin" attributeName="stroke" values="transparent;black;transparent" dur="1s"/>
        </path><path d="M60 212c-17 34 0 74 0 74h9c0-1-13-34 0-74z" stroke-opacity="0.5" fill-opacity="0.5" fill="transparent"
        ><animate attributeName="fill" values="transparent;white;transparent" begin="w.begin+0.2s" dur="1s"/>
        <animate attributeName="stroke" values="transparent;black;transparent" begin="w.begin+0.2s" dur="1s"/>
        </path>
        <path d="M37 221c-13 26 0 57 0 57h7c0 0-10-26 0-57z" stroke-opacity="0.3" fill-opacity="0.3" fill="transparent">
        <animate attributeName="fill" values="transparent;white;transparent" begin="w.begin+0.4s" dur="1s"/>
        <animate attributeName="stroke" values="transparent;black;transparent" begin="w.begin+0.4s" dur="1s"/>
        </path></g><use href="#147b" x="-500" y="-500" transform="rotate(180)"/>
</svg>