<?xml version='1.0' encoding='iso-8859-1'?>
<svg  xmlns='http://www.w3.org/2000/svg' xmlns:xlink='http://www.w3.org/1999/xlink' width='500' height='500' viewbox='0 0 500 500' style='background-color:#111111'>
<g fill-opacity='0.3'>
<circle fill = '#0b0b02' cx='9' cy='5' r = '379'/>
<circle fill = '#0b0b02' cx='41' cy='277' r = '319'/>
<circle fill = '#4d64fb' cx='293' cy='147' r = '286'/>
<circle fill = '#f8f5ef' cx='483' cy='498' r = '351'/>
<rect fill = '#4d64fb' x = '152.0' y = '76.0' width='650' height='574'
                    transform = 'rotate(275)'/>
<circle fill = '#f8f5ef' cx='355' cy='178' r = '399'/>
<circle fill = '#f8f5ef' cx='307' cy='154' r = '265'/>
<circle fill = '#f8f5ef' cx='267' cy='134' r = '388'/>
<circle fill = '#4d64fb' cx='179' cy='346' r = '313'/>
<rect fill = '#0b0b02' x = '39.0' y = '19.5' width='748' height='682'
                    transform = 'rotate(93)'/>
<circle fill = '#f8f5ef' cx='441' cy='221' r = '387'/>
<rect fill = '#4d64fb' x = '238.0' y = '119.0' width='736' height='618'
                    transform = 'rotate(30)'/>
<rect fill = '#0b0b02' x = '98.0' y = '177.0' width='550' height='676'
                    transform = 'rotate(301)'/>
<rect fill = '#f8f5ef' x = '179.0' y = '217.5' width='632' height='624'
                    transform = 'rotate(183)'/>
<circle fill = '#0b0b02' cx='343' cy='172' r = '374'/>
</g>

        <g>
        <path stroke-dasharray="0" stroke-dashoffset="0" stroke-width="16" d="M195.5 248c0 30 37.5 30 52.5 0s 52.5-30 52.5 0s-37.5 30-52.5 0s-52.5-30-52.5 0" fill="none">
        <animate begin="s.begin" attributeType="XML" attributeName="stroke" values="#4d64fb;#0b0b02;#4d64fb" dur="4s" fill="freeze"/>
        <animate begin="s.begin" attributeType="XML" attributeName="stroke-dasharray" values="0;50;0" dur="6s" fill="freeze"/>
        <animate begin="a.begin" attributeType="XML" attributeName="stroke-width" values="16;20;16" dur="1s" fill="freeze"/>
        </path><path stroke-dasharray="300" stroke-dashoffset="300" stroke-width="16" d="M195.5 248c0 30 37.5 30 52.5 0s 52.5-30 52.5 0s-37.5 30-52.5 0s-52.5-30-52.5 0" fill="none">
        <animate begin="s.begin" attributeType="XML" attributeName="stroke" values="#4d64fb;#f8f5ef;#4d64fb" dur="4s" fill="freeze"/>
        <animate id="a" begin="s.begin;a.end" attributeType="XML" attributeName="stroke-width" values="16;20;16" dur="1s" fill="freeze"/>
        <animate id="s" attributeType="XML" attributeName="stroke-dashoffset" begin="0s;s.end" to= "-1800" dur="6s"/></path></g><g id="147b">
        <path d="M194 179H131c-34 65 0 143 0 143h63C132 251 194 179 194 179Zm-26 128H144s-25-35 0-111h23S126 245 168 307Z" stroke="black" fill-opacity="0.9" stroke-width="0.7">
        <animate begin="s.begin" attributeName="fill" dur="6s" values="black;#4d64fb;black;#0b0b02;black;#f8f5ef;black"/>
        </path>
        <text x="2" y="40" font-size="3em" fill-opacity="0.3" fill="black">    </text>
        <path d="M90 203c-21 41 0 91 0 91h11c0 0-16-42 0-91z" stroke-opacity="0.7" fill-opacity="0.7" fill="transparent">
        <animate id="w" attributeName="fill" values="transparent;white;transparent" begin="s.begin+.17s;s.begin+2.17s;s.begin+4.17s" dur="1s"/>
        <animate begin="w.begin" attributeName="stroke" values="transparent;black;transparent" dur="1s"/>
        </path><path d="M60 212c-17 34 0 74 0 74h9c0-1-13-34 0-74z" stroke-opacity="0.5" fill-opacity="0.5" fill="transparent"
        ><animate attributeName="fill" values="transparent;white;transparent" begin="w.begin+0.2s" dur="1s"/>
        <animate attributeName="stroke" values="transparent;black;transparent" begin="w.begin+0.2s" dur="1s"/>
        </path>
        <path d="M37 221c-13 26 0 57 0 57h7c0 0-10-26 0-57z" stroke-opacity="0.3" fill-opacity="0.3" fill="transparent">
        <animate attributeName="fill" values="transparent;white;transparent" begin="w.begin+0.4s" dur="1s"/>
        <animate attributeName="stroke" values="transparent;black;transparent" begin="w.begin+0.4s" dur="1s"/>
        </path></g><use href="#147b" x="-500" y="-500" transform="rotate(180)"/>
</svg>