<?xml version='1.0' encoding='iso-8859-1'?>
<svg  xmlns='http://www.w3.org/2000/svg' xmlns:xlink='http://www.w3.org/1999/xlink' width='500' height='500' viewbox='0 0 500 500' style='background-color:#111111'>
<g fill-opacity='0.3'>
<rect fill = '#1f5c7c' x = '28.0' y = '71.0' width='554' height='696'
                    transform = 'rotate(177)'/>
<circle fill = '#1f5c7c' cx='412' cy='223' r = '305'/>
<rect fill = '#0b0b02' x = '141.5' y = '197.5' width='788' height='530'
                    transform = 'rotate(200)'/>
<rect fill = '#1f5c7c' x = '163.5' y = '166.0' width='504' height='786'
                    transform = 'rotate(226)'/>
<circle fill = '#f8f5ef' cx='283' cy='311' r = '303'/>
<rect fill = '#f8f5ef' x = '162.0' y = '1.0' width='702' height='754'
                    transform = 'rotate(223)'/>
<rect fill = '#0b0b02' x = '93.5' y = '70.5' width='506' height='768'
                    transform = 'rotate(293)'/>
<circle fill = '#0b0b02' cx='304' cy='394' r = '381'/>
<rect fill = '#f8f5ef' x = '17.0' y = '122.5' width='598' height='638'
                    transform = 'rotate(158)'/>
<circle fill = '#f8f5ef' cx='340' cy='462' r = '268'/>
<rect fill = '#0b0b02' x = '220.5' y = '34.0' width='724' height='766'
                    transform = 'rotate(141)'/>
<rect fill = '#1f5c7c' x = '135.5' y = '47.0' width='586' height='760'
                    transform = 'rotate(133)'/>
<rect fill = '#f8f5ef' x = '208.5' y = '190.5' width='616' height='604'
                    transform = 'rotate(108)'/>
<circle fill = '#f8f5ef' cx='238' cy='132' r = '292'/>
<circle fill = '#1f5c7c' cx='345' cy='64' r = '378'/>
<rect fill = '#f8f5ef' x = '127.0' y = '129.0' width='736' height='564'
                    transform = 'rotate(351)'/>
</g>

        <g>
        <path stroke-dasharray="0" stroke-dashoffset="0" stroke-width="16" d="M195.5 248c0 30 37.5 30 52.5 0s 52.5-30 52.5 0s-37.5 30-52.5 0s-52.5-30-52.5 0" fill="none">
        <animate begin="s.begin" attributeType="XML" attributeName="stroke" values="#1f5c7c;#0b0b02;#1f5c7c" dur="4s" fill="freeze"/>
        <animate begin="s.begin" attributeType="XML" attributeName="stroke-dasharray" values="0;50;0" dur="6s" fill="freeze"/>
        <animate begin="a.begin" attributeType="XML" attributeName="stroke-width" values="16;20;16" dur="1s" fill="freeze"/>
        </path><path stroke-dasharray="300" stroke-dashoffset="300" stroke-width="16" d="M195.5 248c0 30 37.5 30 52.5 0s 52.5-30 52.5 0s-37.5 30-52.5 0s-52.5-30-52.5 0" fill="none">
        <animate begin="s.begin" attributeType="XML" attributeName="stroke" values="#1f5c7c;#f8f5ef;#1f5c7c" dur="4s" fill="freeze"/>
        <animate id="a" begin="s.begin;a.end" attributeType="XML" attributeName="stroke-width" values="16;20;16" dur="1s" fill="freeze"/>
        <animate id="s" attributeType="XML" attributeName="stroke-dashoffset" begin="0s;s.end" to= "-1800" dur="6s"/></path></g><g id="147b">
        <path d="M194 179H131c-34 65 0 143 0 143h63C132 251 194 179 194 179Zm-26 128H144s-25-35 0-111h23S126 245 168 307Z" stroke="black" fill-opacity="0.9" stroke-width="0.7">
        <animate begin="s.begin" attributeName="fill" dur="6s" values="black;#1f5c7c;black;#0b0b02;black;#f8f5ef;black"/>
        </path>
        <text x="2" y="40" font-size="3em" fill-opacity="0.3" fill="black">    </text>
        <path d="M90 203c-21 41 0 91 0 91h11c0 0-16-42 0-91z" stroke-opacity="0.7" fill-opacity="0.7" fill="transparent">
        <animate id="w" attributeName="fill" values="transparent;white;transparent" begin="s.begin+.17s;s.begin+2.17s;s.begin+4.17s" dur="1s"/>
        <animate begin="w.begin" attributeName="stroke" values="transparent;black;transparent" dur="1s"/>
        </path><path d="M60 212c-17 34 0 74 0 74h9c0-1-13-34 0-74z" stroke-opacity="0.5" fill-opacity="0.5" fill="transparent"
        ><animate attributeName="fill" values="transparent;white;transparent" begin="w.begin+0.2s" dur="1s"/>
        <animate attributeName="stroke" values="transparent;black;transparent" begin="w.begin+0.2s" dur="1s"/>
        </path>
        <path d="M37 221c-13 26 0 57 0 57h7c0 0-10-26 0-57z" stroke-opacity="0.3" fill-opacity="0.3" fill="transparent">
        <animate attributeName="fill" values="transparent;white;transparent" begin="w.begin+0.4s" dur="1s"/>
        <animate attributeName="stroke" values="transparent;black;transparent" begin="w.begin+0.4s" dur="1s"/>
        </path></g><use href="#147b" x="-500" y="-500" transform="rotate(180)"/>
</svg>