<?xml version='1.0' encoding='iso-8859-1'?>
<svg  xmlns='http://www.w3.org/2000/svg' xmlns:xlink='http://www.w3.org/1999/xlink' width='500' height='500' viewbox='0 0 500 500' style='background-color:#111111'>
<g fill-opacity='0.3'>
<rect fill = '#f8f5ef' x = '5.5' y = '106.0' width='618' height='552'
                    transform = 'rotate(185)'/>
<rect fill = '#1f5c7c' x = '55.0' y = '77.0' width='756' height='766'
                    transform = 'rotate(250)'/>
<circle fill = '#1f5c7c' cx='431' cy='54' r = '256'/>
<circle fill = '#1f5c7c' cx='459' cy='26' r = '310'/>
<circle fill = '#f8f5ef' cx='426' cy='153' r = '278'/>
<circle fill = '#0b0b02' cx='89' cy='233' r = '290'/>
<rect fill = '#1f5c7c' x = '201.0' y = '54.0' width='700' height='704'
                    transform = 'rotate(341)'/>
<rect fill = '#f8f5ef' x = '9.5' y = '55.5' width='784' height='622'
                    transform = 'rotate(292)'/>
<rect fill = '#0b0b02' x = '242.0' y = '109.5' width='788' height='690'
                    transform = 'rotate(264)'/>
<rect fill = '#0b0b02' x = '67.0' y = '130.5' width='632' height='600'
                    transform = 'rotate(235)'/>
<circle fill = '#f8f5ef' cx='32' cy='329' r = '259'/>
<circle fill = '#f8f5ef' cx='246' cy='297' r = '348'/>
<rect fill = '#f8f5ef' x = '139.0' y = '45.0' width='686' height='590'
                    transform = 'rotate(216)'/>
</g>

        <g>
        <path stroke-dasharray="0" stroke-dashoffset="0" stroke-width="16" d="M195.5 248c0 30 37.5 30 52.5 0s 52.5-30 52.5 0s-37.5 30-52.5 0s-52.5-30-52.5 0" fill="none">
        <animate begin="s.begin" attributeType="XML" attributeName="stroke" values="#1f5c7c;#0b0b02;#1f5c7c" dur="4s" fill="freeze"/>
        <animate begin="s.begin" attributeType="XML" attributeName="stroke-dasharray" values="0;50;0" dur="6s" fill="freeze"/>
        <animate begin="a.begin" attributeType="XML" attributeName="stroke-width" values="16;20;16" dur="1s" fill="freeze"/>
        </path><path stroke-dasharray="300" stroke-dashoffset="300" stroke-width="16" d="M195.5 248c0 30 37.5 30 52.5 0s 52.5-30 52.5 0s-37.5 30-52.5 0s-52.5-30-52.5 0" fill="none">
        <animate begin="s.begin" attributeType="XML" attributeName="stroke" values="#1f5c7c;#f8f5ef;#1f5c7c" dur="4s" fill="freeze"/>
        <animate id="a" begin="s.begin;a.end" attributeType="XML" attributeName="stroke-width" values="16;20;16" dur="1s" fill="freeze"/>
        <animate id="s" attributeType="XML" attributeName="stroke-dashoffset" begin="0s;s.end" to= "-1800" dur="6s"/></path></g><g id="147b">
        <path d="M194 179H131c-34 65 0 143 0 143h63C132 251 194 179 194 179Zm-26 128H144s-25-35 0-111h23S126 245 168 307Z" stroke="black" fill-opacity="0.9" stroke-width="0.7">
        <animate begin="s.begin" attributeName="fill" dur="6s" values="black;#1f5c7c;black;#0b0b02;black;#f8f5ef;black"/>
        </path>
        <text x="2" y="40" font-size="3em" fill-opacity="0.3" fill="black">    </text>
        <path d="M90 203c-21 41 0 91 0 91h11c0 0-16-42 0-91z" stroke-opacity="0.7" fill-opacity="0.7" fill="transparent">
        <animate id="w" attributeName="fill" values="transparent;white;transparent" begin="s.begin+.17s;s.begin+2.17s;s.begin+4.17s" dur="1s"/>
        <animate begin="w.begin" attributeName="stroke" values="transparent;black;transparent" dur="1s"/>
        </path><path d="M60 212c-17 34 0 74 0 74h9c0-1-13-34 0-74z" stroke-opacity="0.5" fill-opacity="0.5" fill="transparent"
        ><animate attributeName="fill" values="transparent;white;transparent" begin="w.begin+0.2s" dur="1s"/>
        <animate attributeName="stroke" values="transparent;black;transparent" begin="w.begin+0.2s" dur="1s"/>
        </path>
        <path d="M37 221c-13 26 0 57 0 57h7c0 0-10-26 0-57z" stroke-opacity="0.3" fill-opacity="0.3" fill="transparent">
        <animate attributeName="fill" values="transparent;white;transparent" begin="w.begin+0.4s" dur="1s"/>
        <animate attributeName="stroke" values="transparent;black;transparent" begin="w.begin+0.4s" dur="1s"/>
        </path></g><use href="#147b" x="-500" y="-500" transform="rotate(180)"/>
</svg>