<?xml version='1.0' encoding='iso-8859-1'?>
<svg  xmlns='http://www.w3.org/2000/svg' xmlns:xlink='http://www.w3.org/1999/xlink' width='500' height='500' viewbox='0 0 500 500' style='background-color:#111111'>
<g fill-opacity='0.3'>
<rect fill = '#f8f5ef' x = '201.0' y = '64.0' width='682' height='788'
                    transform = 'rotate(161)'/>
<circle fill = '#0b0b02' cx='184' cy='429' r = '287'/>
<circle fill = '#1f5c7c' cx='225' cy='242' r = '347'/>
<circle fill = '#f8f5ef' cx='481' cy='424' r = '385'/>
<rect fill = '#f8f5ef' x = '185.0' y = '50.0' width='790' height='706'
                    transform = 'rotate(80)'/>
<circle fill = '#1f5c7c' cx='289' cy='288' r = '253'/>
<rect fill = '#1f5c7c' x = '75.5' y = '80.0' width='642' height='752'
                    transform = 'rotate(317)'/>
<circle fill = '#0b0b02' cx='159' cy='92' r = '313'/>
<circle fill = '#1f5c7c' cx='38' cy='313' r = '305'/>
<circle fill = '#0b0b02' cx='52' cy='470' r = '280'/>
<circle fill = '#0b0b02' cx='141' cy='1' r = '285'/>
<circle fill = '#0b0b02' cx='144' cy='302' r = '324'/>
<rect fill = '#f8f5ef' x = '43.0' y = '242.5' width='690' height='686'
                    transform = 'rotate(175)'/>
<circle fill = '#0b0b02' cx='283' cy='343' r = '340'/>
<circle fill = '#f8f5ef' cx='252' cy='108' r = '384'/>
<circle fill = '#0b0b02' cx='472' cy='193' r = '300'/>
<circle fill = '#f8f5ef' cx='298' cy='396' r = '305'/>
<circle fill = '#0b0b02' cx='134' cy='97' r = '270'/>
<circle fill = '#f8f5ef' cx='132' cy='406' r = '395'/>
<circle fill = '#f8f5ef' cx='30' cy='64' r = '398'/>
<circle fill = '#0b0b02' cx='7' cy='143' r = '301'/>
<rect fill = '#0b0b02' x = '191.5' y = '230.0' width='780' height='568'
                    transform = 'rotate(8)'/>
</g>

        <g>
        <path stroke-dasharray="0" stroke-dashoffset="0" stroke-width="16" d="M195.5 248c0 30 37.5 30 52.5 0s 52.5-30 52.5 0s-37.5 30-52.5 0s-52.5-30-52.5 0" fill="none">
        <animate begin="s.begin" attributeType="XML" attributeName="stroke" values="#1f5c7c;#0b0b02;#1f5c7c" dur="4s" fill="freeze"/>
        <animate begin="s.begin" attributeType="XML" attributeName="stroke-dasharray" values="0;50;0" dur="6s" fill="freeze"/>
        <animate begin="a.begin" attributeType="XML" attributeName="stroke-width" values="16;20;16" dur="1s" fill="freeze"/>
        </path><path stroke-dasharray="300" stroke-dashoffset="300" stroke-width="16" d="M195.5 248c0 30 37.5 30 52.5 0s 52.5-30 52.5 0s-37.5 30-52.5 0s-52.5-30-52.5 0" fill="none">
        <animate begin="s.begin" attributeType="XML" attributeName="stroke" values="#1f5c7c;#f8f5ef;#1f5c7c" dur="4s" fill="freeze"/>
        <animate id="a" begin="s.begin;a.end" attributeType="XML" attributeName="stroke-width" values="16;20;16" dur="1s" fill="freeze"/>
        <animate id="s" attributeType="XML" attributeName="stroke-dashoffset" begin="0s;s.end" to= "-1800" dur="6s"/></path></g><g id="147b">
        <path d="M194 179H131c-34 65 0 143 0 143h63C132 251 194 179 194 179Zm-26 128H144s-25-35 0-111h23S126 245 168 307Z" stroke="black" fill-opacity="0.9" stroke-width="0.7">
        <animate begin="s.begin" attributeName="fill" dur="6s" values="black;#1f5c7c;black;#0b0b02;black;#f8f5ef;black"/>
        </path>
        <text x="2" y="40" font-size="3em" fill-opacity="0.3" fill="black">    </text>
        <path d="M90 203c-21 41 0 91 0 91h11c0 0-16-42 0-91z" stroke-opacity="0.7" fill-opacity="0.7" fill="transparent">
        <animate id="w" attributeName="fill" values="transparent;white;transparent" begin="s.begin+.17s;s.begin+2.17s;s.begin+4.17s" dur="1s"/>
        <animate begin="w.begin" attributeName="stroke" values="transparent;black;transparent" dur="1s"/>
        </path><path d="M60 212c-17 34 0 74 0 74h9c0-1-13-34 0-74z" stroke-opacity="0.5" fill-opacity="0.5" fill="transparent"
        ><animate attributeName="fill" values="transparent;white;transparent" begin="w.begin+0.2s" dur="1s"/>
        <animate attributeName="stroke" values="transparent;black;transparent" begin="w.begin+0.2s" dur="1s"/>
        </path>
        <path d="M37 221c-13 26 0 57 0 57h7c0 0-10-26 0-57z" stroke-opacity="0.3" fill-opacity="0.3" fill="transparent">
        <animate attributeName="fill" values="transparent;white;transparent" begin="w.begin+0.4s" dur="1s"/>
        <animate attributeName="stroke" values="transparent;black;transparent" begin="w.begin+0.4s" dur="1s"/>
        </path></g><use href="#147b" x="-500" y="-500" transform="rotate(180)"/>
</svg>