<?xml version='1.0' encoding='iso-8859-1'?>
<svg  xmlns='http://www.w3.org/2000/svg' xmlns:xlink='http://www.w3.org/1999/xlink' width='500' height='500' viewbox='0 0 500 500' style='background-color:#111111'>
<g fill-opacity='0.3'>
<circle fill = '#0b0b02' cx='297' cy='330' r = '286'/>
<circle fill = '#f8f5ef' cx='296' cy='307' r = '353'/>
<circle fill = '#1f5c7c' cx='305' cy='25' r = '257'/>
<circle fill = '#0b0b02' cx='345' cy='490' r = '354'/>
<rect fill = '#f8f5ef' x = '240.5' y = '202.5' width='624' height='666'
                    transform = 'rotate(113)'/>
<circle fill = '#1f5c7c' cx='36' cy='39' r = '328'/>
<circle fill = '#1f5c7c' cx='223' cy='319' r = '298'/>
<rect fill = '#1f5c7c' x = '44.5' y = '166.5' width='628' height='766'
                    transform = 'rotate(245)'/>
<circle fill = '#1f5c7c' cx='296' cy='117' r = '315'/>
<rect fill = '#f8f5ef' x = '218.0' y = '208.0' width='640' height='542'
                    transform = 'rotate(207)'/>
<circle fill = '#1f5c7c' cx='143' cy='229' r = '266'/>
<rect fill = '#0b0b02' x = '98.0' y = '201.5' width='524' height='658'
                    transform = 'rotate(249)'/>
<circle fill = '#1f5c7c' cx='372' cy='354' r = '339'/>
<rect fill = '#f8f5ef' x = '150.0' y = '105.0' width='708' height='610'
                    transform = 'rotate(181)'/>
<rect fill = '#1f5c7c' x = '29.0' y = '193.0' width='732' height='500'
                    transform = 'rotate(54)'/>
<circle fill = '#0b0b02' cx='239' cy='20' r = '376'/>
</g>

        <g>
        <path stroke-dasharray="0" stroke-dashoffset="0" stroke-width="16" d="M195.5 248c0 30 37.5 30 52.5 0s 52.5-30 52.5 0s-37.5 30-52.5 0s-52.5-30-52.5 0" fill="none">
        <animate begin="s.begin" attributeType="XML" attributeName="stroke" values="#1f5c7c;#0b0b02;#1f5c7c" dur="4s" fill="freeze"/>
        <animate begin="s.begin" attributeType="XML" attributeName="stroke-dasharray" values="0;50;0" dur="6s" fill="freeze"/>
        <animate begin="a.begin" attributeType="XML" attributeName="stroke-width" values="16;20;16" dur="1s" fill="freeze"/>
        </path><path stroke-dasharray="300" stroke-dashoffset="300" stroke-width="16" d="M195.5 248c0 30 37.5 30 52.5 0s 52.5-30 52.5 0s-37.5 30-52.5 0s-52.5-30-52.5 0" fill="none">
        <animate begin="s.begin" attributeType="XML" attributeName="stroke" values="#1f5c7c;#f8f5ef;#1f5c7c" dur="4s" fill="freeze"/>
        <animate id="a" begin="s.begin;a.end" attributeType="XML" attributeName="stroke-width" values="16;20;16" dur="1s" fill="freeze"/>
        <animate id="s" attributeType="XML" attributeName="stroke-dashoffset" begin="0s;s.end" to= "-1800" dur="6s"/></path></g><g id="147b">
        <path d="M194 179H131c-34 65 0 143 0 143h63C132 251 194 179 194 179Zm-26 128H144s-25-35 0-111h23S126 245 168 307Z" stroke="black" fill-opacity="0.9" stroke-width="0.7">
        <animate begin="s.begin" attributeName="fill" dur="6s" values="black;#1f5c7c;black;#0b0b02;black;#f8f5ef;black"/>
        </path>
        <text x="2" y="40" font-size="3em" fill-opacity="0.3" fill="black">    </text>
        <path d="M90 203c-21 41 0 91 0 91h11c0 0-16-42 0-91z" stroke-opacity="0.7" fill-opacity="0.7" fill="transparent">
        <animate id="w" attributeName="fill" values="transparent;white;transparent" begin="s.begin+.17s;s.begin+2.17s;s.begin+4.17s" dur="1s"/>
        <animate begin="w.begin" attributeName="stroke" values="transparent;black;transparent" dur="1s"/>
        </path><path d="M60 212c-17 34 0 74 0 74h9c0-1-13-34 0-74z" stroke-opacity="0.5" fill-opacity="0.5" fill="transparent"
        ><animate attributeName="fill" values="transparent;white;transparent" begin="w.begin+0.2s" dur="1s"/>
        <animate attributeName="stroke" values="transparent;black;transparent" begin="w.begin+0.2s" dur="1s"/>
        </path>
        <path d="M37 221c-13 26 0 57 0 57h7c0 0-10-26 0-57z" stroke-opacity="0.3" fill-opacity="0.3" fill="transparent">
        <animate attributeName="fill" values="transparent;white;transparent" begin="w.begin+0.4s" dur="1s"/>
        <animate attributeName="stroke" values="transparent;black;transparent" begin="w.begin+0.4s" dur="1s"/>
        </path></g><use href="#147b" x="-500" y="-500" transform="rotate(180)"/>
</svg>