<?xml version='1.0' encoding='iso-8859-1'?>
<svg  xmlns='http://www.w3.org/2000/svg' xmlns:xlink='http://www.w3.org/1999/xlink' width='500' height='500' viewbox='0 0 500 500' style='background-color:#111111'>
<g fill-opacity='0.3'>
<rect fill = '#56ac78' x = '11.0' y = '133.5' width='766' height='540'
                    transform = 'rotate(162)'/>
<circle fill = '#d13f49' cx='277' cy='395' r = '279'/>
<circle fill = '#282c02' cx='11' cy='256' r = '267'/>
<rect fill = '#282c02' x = '138.0' y = '69.0' width='636' height='778'
                    transform = 'rotate(146)'/>
<circle fill = '#d13f49' cx='339' cy='426' r = '287'/>
<circle fill = '#282c02' cx='95' cy='304' r = '256'/>
<circle fill = '#282c02' cx='221' cy='111' r = '359'/>
<rect fill = '#d13f49' x = '173.0' y = '86.5' width='580' height='750'
                    transform = 'rotate(110)'/>
<circle fill = '#d13f49' cx='315' cy='414' r = '284'/>
<circle fill = '#56ac78' cx='447' cy='480' r = '300'/>
<rect fill = '#56ac78' x = '144.0' y = '72.0' width='550' height='524'
                    transform = 'rotate(82)'/>
<circle fill = '#56ac78' cx='75' cy='294' r = '300'/>
<circle fill = '#282c02' cx='365' cy='439' r = '336'/>
<circle fill = '#56ac78' cx='303' cy='152' r = '264'/>
<circle fill = '#d13f49' cx='267' cy='134' r = '388'/>
</g>

        <g>
        <path stroke-dasharray="0" stroke-dashoffset="0" stroke-width="16" d="M195.5 248c0 30 37.5 30 52.5 0s 52.5-30 52.5 0s-37.5 30-52.5 0s-52.5-30-52.5 0" fill="none">
        <animate begin="s.begin" attributeType="XML" attributeName="stroke" values="#d13f49;#282c02;#d13f49" dur="4s" fill="freeze"/>
        <animate begin="s.begin" attributeType="XML" attributeName="stroke-dasharray" values="0;50;0" dur="6s" fill="freeze"/>
        <animate begin="a.begin" attributeType="XML" attributeName="stroke-width" values="16;20;16" dur="1s" fill="freeze"/>
        </path><path stroke-dasharray="300" stroke-dashoffset="300" stroke-width="16" d="M195.5 248c0 30 37.5 30 52.5 0s 52.5-30 52.5 0s-37.5 30-52.5 0s-52.5-30-52.5 0" fill="none">
        <animate begin="s.begin" attributeType="XML" attributeName="stroke" values="#d13f49;#56ac78;#d13f49" dur="4s" fill="freeze"/>
        <animate id="a" begin="s.begin;a.end" attributeType="XML" attributeName="stroke-width" values="16;20;16" dur="1s" fill="freeze"/>
        <animate id="s" attributeType="XML" attributeName="stroke-dashoffset" begin="0s;s.end" to= "-1800" dur="6s"/></path></g><g id="147b">
        <path d="M194 179H131c-34 65 0 143 0 143h63C132 251 194 179 194 179Zm-26 128H144s-25-35 0-111h23S126 245 168 307Z" stroke="black" fill-opacity="0.9" stroke-width="0.7">
        <animate begin="s.begin" attributeName="fill" dur="6s" values="black;#d13f49;black;#282c02;black;#56ac78;black"/>
        </path>
        <text x="2" y="40" font-size="3em" fill-opacity="0.3" fill="black">    </text>
        <path d="M90 203c-21 41 0 91 0 91h11c0 0-16-42 0-91z" stroke-opacity="0.7" fill-opacity="0.7" fill="transparent">
        <animate id="w" attributeName="fill" values="transparent;white;transparent" begin="s.begin+.17s;s.begin+2.17s;s.begin+4.17s" dur="1s"/>
        <animate begin="w.begin" attributeName="stroke" values="transparent;black;transparent" dur="1s"/>
        </path><path d="M60 212c-17 34 0 74 0 74h9c0-1-13-34 0-74z" stroke-opacity="0.5" fill-opacity="0.5" fill="transparent"
        ><animate attributeName="fill" values="transparent;white;transparent" begin="w.begin+0.2s" dur="1s"/>
        <animate attributeName="stroke" values="transparent;black;transparent" begin="w.begin+0.2s" dur="1s"/>
        </path>
        <path d="M37 221c-13 26 0 57 0 57h7c0 0-10-26 0-57z" stroke-opacity="0.3" fill-opacity="0.3" fill="transparent">
        <animate attributeName="fill" values="transparent;white;transparent" begin="w.begin+0.4s" dur="1s"/>
        <animate attributeName="stroke" values="transparent;black;transparent" begin="w.begin+0.4s" dur="1s"/>
        </path></g><use href="#147b" x="-500" y="-500" transform="rotate(180)"/>
</svg>