<?xml version='1.0' encoding='iso-8859-1'?>
<svg  xmlns='http://www.w3.org/2000/svg' xmlns:xlink='http://www.w3.org/1999/xlink' width='500' height='500' viewbox='0 0 500 500' style='background-color:#111111'>
<g fill-opacity='0.3'>
<circle fill = '#42ae4e' cx='235' cy='374' r = '343'/>
<rect fill = '#d13f49' x = '243.0' y = '121.5' width='742' height='620'
                    transform = 'rotate(287)'/>
<rect fill = '#222a53' x = '178.0' y = '89.0' width='676' height='798'
                    transform = 'rotate(151)'/>
<circle fill = '#222a53' cx='83' cy='298' r = '278'/>
<circle fill = '#d13f49' cx='245' cy='379' r = '298'/>
<rect fill = '#222a53' x = '75.0' y = '165.5' width='528' height='664'
                    transform = 'rotate(298)'/>
<rect fill = '#d13f49' x = '147.0' y = '201.5' width='600' height='700'
                    transform = 'rotate(307)'/>
<circle fill = '#42ae4e' cx='167' cy='340' r = '311'/>
<rect fill = '#222a53' x = '183.0' y = '219.5' width='544' height='672'
                    transform = 'rotate(15)'/>
<circle fill = '#42ae4e' cx='47' cy='280' r = '250'/>
<circle fill = '#d13f49' cx='29' cy='15' r = '358'/>
<circle fill = '#222a53' cx='433' cy='217' r = '386'/>
<rect fill = '#222a53' x = '142.0' y = '199.0' width='594' height='698'
                    transform = 'rotate(50)'/>
<circle fill = '#222a53' cx='199' cy='356' r = '269'/>
<rect fill = '#42ae4e' x = '15.0' y = '135.5' width='770' height='542'
                    transform = 'rotate(162)'/>
</g>

        <g>
        <path stroke-dasharray="0" stroke-dashoffset="0" stroke-width="16" d="M195.5 248c0 30 37.5 30 52.5 0s 52.5-30 52.5 0s-37.5 30-52.5 0s-52.5-30-52.5 0" fill="none">
        <animate begin="s.begin" attributeType="XML" attributeName="stroke" values="#d13f49;#222a53;#d13f49" dur="4s" fill="freeze"/>
        <animate begin="s.begin" attributeType="XML" attributeName="stroke-dasharray" values="0;50;0" dur="6s" fill="freeze"/>
        <animate begin="a.begin" attributeType="XML" attributeName="stroke-width" values="16;20;16" dur="1s" fill="freeze"/>
        </path><path stroke-dasharray="300" stroke-dashoffset="300" stroke-width="16" d="M195.5 248c0 30 37.5 30 52.5 0s 52.5-30 52.5 0s-37.5 30-52.5 0s-52.5-30-52.5 0" fill="none">
        <animate begin="s.begin" attributeType="XML" attributeName="stroke" values="#d13f49;#42ae4e;#d13f49" dur="4s" fill="freeze"/>
        <animate id="a" begin="s.begin;a.end" attributeType="XML" attributeName="stroke-width" values="16;20;16" dur="1s" fill="freeze"/>
        <animate id="s" attributeType="XML" attributeName="stroke-dashoffset" begin="0s;s.end" to= "-1800" dur="6s"/></path></g><g id="147b">
        <path d="M194 179H131c-34 65 0 143 0 143h63C132 251 194 179 194 179Zm-26 128H144s-25-35 0-111h23S126 245 168 307Z" stroke="black" fill-opacity="0.9" stroke-width="0.7">
        <animate begin="s.begin" attributeName="fill" dur="6s" values="black;#d13f49;black;#222a53;black;#42ae4e;black"/>
        </path>
        <text x="2" y="40" font-size="3em" fill-opacity="0.3" fill="black">    </text>
        <path d="M90 203c-21 41 0 91 0 91h11c0 0-16-42 0-91z" stroke-opacity="0.7" fill-opacity="0.7" fill="transparent">
        <animate id="w" attributeName="fill" values="transparent;white;transparent" begin="s.begin+.17s;s.begin+2.17s;s.begin+4.17s" dur="1s"/>
        <animate begin="w.begin" attributeName="stroke" values="transparent;black;transparent" dur="1s"/>
        </path><path d="M60 212c-17 34 0 74 0 74h9c0-1-13-34 0-74z" stroke-opacity="0.5" fill-opacity="0.5" fill="transparent"
        ><animate attributeName="fill" values="transparent;white;transparent" begin="w.begin+0.2s" dur="1s"/>
        <animate attributeName="stroke" values="transparent;black;transparent" begin="w.begin+0.2s" dur="1s"/>
        </path>
        <path d="M37 221c-13 26 0 57 0 57h7c0 0-10-26 0-57z" stroke-opacity="0.3" fill-opacity="0.3" fill="transparent">
        <animate attributeName="fill" values="transparent;white;transparent" begin="w.begin+0.4s" dur="1s"/>
        <animate attributeName="stroke" values="transparent;black;transparent" begin="w.begin+0.4s" dur="1s"/>
        </path></g><use href="#147b" x="-500" y="-500" transform="rotate(180)"/>
</svg>