<?xml version='1.0' encoding='iso-8859-1'?>
<svg  xmlns='http://www.w3.org/2000/svg' xmlns:xlink='http://www.w3.org/1999/xlink' width='500' height='500' viewbox='0 0 500 500' style='background-color:#111111'>
<g fill-opacity='0.3'>
<rect fill = '#56ac78' x = '14.0' y = '7.0' width='722' height='762'
                    transform = 'rotate(66)'/>
<circle fill = '#56ac78' cx='393' cy='197' r = '381'/>
<rect fill = '#56ac78' x = '30.0' y = '15.0' width='738' height='678'
                    transform = 'rotate(196)'/>
<circle fill = '#d13f49' cx='217' cy='109' r = '277'/>
<rect fill = '#56ac78' x = '113.0' y = '56.5' width='520' height='510'
                    transform = 'rotate(335)'/>
<rect fill = '#d13f49' x = '213.0' y = '234.5' width='574' height='688'
                    transform = 'rotate(19)'/>
<rect fill = '#4b3534' x = '88.0' y = '44.0' width='796' height='798'
                    transform = 'rotate(75)'/>
<rect fill = '#d13f49' x = '133.0' y = '194.5' width='796' height='556'
                    transform = 'rotate(241)'/>
<circle fill = '#56ac78' cx='31' cy='16' r = '381'/>
<circle fill = '#4b3534' cx='393' cy='197' r = '381'/>
<rect fill = '#4b3534' x = '238.0' y = '119.0' width='736' height='618'
                    transform = 'rotate(286)'/>
<rect fill = '#d13f49' x = '18.0' y = '137.0' width='680' height='800'
                    transform = 'rotate(227)'/>
<circle fill = '#4b3534' cx='349' cy='175' r = '293'/>
<circle fill = '#4b3534' cx='131' cy='322' r = '330'/>
<rect fill = '#d13f49' x = '19.0' y = '9.5' width='728' height='672'
                    transform = 'rotate(91)'/>
</g>

        <g>
        <path stroke-dasharray="0" stroke-dashoffset="0" stroke-width="16" d="M195.5 248c0 30 37.5 30 52.5 0s 52.5-30 52.5 0s-37.5 30-52.5 0s-52.5-30-52.5 0" fill="none">
        <animate begin="s.begin" attributeType="XML" attributeName="stroke" values="#d13f49;#4b3534;#d13f49" dur="4s" fill="freeze"/>
        <animate begin="s.begin" attributeType="XML" attributeName="stroke-dasharray" values="0;50;0" dur="6s" fill="freeze"/>
        <animate begin="a.begin" attributeType="XML" attributeName="stroke-width" values="16;20;16" dur="1s" fill="freeze"/>
        </path><path stroke-dasharray="300" stroke-dashoffset="300" stroke-width="16" d="M195.5 248c0 30 37.5 30 52.5 0s 52.5-30 52.5 0s-37.5 30-52.5 0s-52.5-30-52.5 0" fill="none">
        <animate begin="s.begin" attributeType="XML" attributeName="stroke" values="#d13f49;#56ac78;#d13f49" dur="4s" fill="freeze"/>
        <animate id="a" begin="s.begin;a.end" attributeType="XML" attributeName="stroke-width" values="16;20;16" dur="1s" fill="freeze"/>
        <animate id="s" attributeType="XML" attributeName="stroke-dashoffset" begin="0s;s.end" to= "-1800" dur="6s"/></path></g><g id="147b">
        <path d="M194 179H131c-34 65 0 143 0 143h63C132 251 194 179 194 179Zm-26 128H144s-25-35 0-111h23S126 245 168 307Z" stroke="black" fill-opacity="0.9" stroke-width="0.7">
        <animate begin="s.begin" attributeName="fill" dur="6s" values="black;#d13f49;black;#4b3534;black;#56ac78;black"/>
        </path>
        <text x="2" y="40" font-size="3em" fill-opacity="0.3" fill="black">    </text>
        <path d="M90 203c-21 41 0 91 0 91h11c0 0-16-42 0-91z" stroke-opacity="0.7" fill-opacity="0.7" fill="transparent">
        <animate id="w" attributeName="fill" values="transparent;white;transparent" begin="s.begin+.17s;s.begin+2.17s;s.begin+4.17s" dur="1s"/>
        <animate begin="w.begin" attributeName="stroke" values="transparent;black;transparent" dur="1s"/>
        </path><path d="M60 212c-17 34 0 74 0 74h9c0-1-13-34 0-74z" stroke-opacity="0.5" fill-opacity="0.5" fill="transparent"
        ><animate attributeName="fill" values="transparent;white;transparent" begin="w.begin+0.2s" dur="1s"/>
        <animate attributeName="stroke" values="transparent;black;transparent" begin="w.begin+0.2s" dur="1s"/>
        </path>
        <path d="M37 221c-13 26 0 57 0 57h7c0 0-10-26 0-57z" stroke-opacity="0.3" fill-opacity="0.3" fill="transparent">
        <animate attributeName="fill" values="transparent;white;transparent" begin="w.begin+0.4s" dur="1s"/>
        <animate attributeName="stroke" values="transparent;black;transparent" begin="w.begin+0.4s" dur="1s"/>
        </path></g><use href="#147b" x="-500" y="-500" transform="rotate(180)"/>
</svg>