<svg xmlns="http://www.w3.org/2000/svg" xmlns:xlink="http://www.w3.org/1999/xlink" width="500" height="500" viewbox="0 0 500 500" style="background-color:#111111"><g fill-opacity="0.3"><rect fill="#222222" x="1" y="50" width="614" height="782" transform="rotate(49)"/><rect fill="#777777" x="63" y="40" width="700" height="582" transform="rotate(193)"/><rect fill="#AAAAAA" x="150" y="86" width="682" height="700" transform="rotate(65)"/><circle fill="#777777" cx="212" cy="221" r="251"/><rect fill="#777777" x="95" y="78" width="568" height="722" transform="rotate(257)"/><circle fill="#777777" cx="173" cy="245" r="298"/><circle fill="#777777" cx="300" cy="365" r="343"/><rect fill="#AAAAAA" x="165" y="198" width="786" height="598" transform="rotate(289)"/><circle fill="#222222" cx="351" cy="429" r="362"/><circle fill="#AAAAAA" cx="481" cy="309" r="274"/><circle fill="#AAAAAA" cx="258" cy="57" r="338"/><circle fill="#222222" cx="446" cy="417" r="268"/><circle fill="#777777" cx="112" cy="261" r="396"/><circle fill="#222222" cx="40" cy="21" r="342"/><circle fill="#777777" cx="135" cy="85" r="388"/></g><g id="infinity_1"><path id="infinity" stroke-dasharray="0" stroke-dashoffset="0" stroke-width="16" d="M195.5 248c0 30 37.5 30 52.5 0s 52.5-30 52.5 0s-37.5 30-52.5 0s-52.5-30-52.5 0" fill="none"><animate begin="s.begin" attributeType="XML" attributeName="stroke" values="#214F70;#777777;#214F70" dur="4s" fill="freeze"/><animate begin="s.begin" attributeType="XML" attributeName="stroke-dasharray" values="0;50;0" dur="6s" fill="freeze"/><animate begin="a.begin" attributeType="XML" attributeName="stroke-width" values="16;20;16" dur="1s" fill="freeze"/></path><path id="infinity_2" stroke-dasharray="300" stroke-dashoffset="300" stroke-width="16" d="M195.5 248c0 30 37.5 30 52.5 0s 52.5-30 52.5 0s-37.5 30-52.5 0s-52.5-30-52.5 0" fill="none"><animate begin="s.begin" attributeType="XML" attributeName="stroke" values="#AAAAAA;#214F70;#AAAAAA" dur="4s" fill="freeze"/><animate id="a" begin="s.begin;s.begin+1s;s.begin+2s;s.begin+3s;s.begin+4s;s.begin+5s;s.begin+6s" attributeType="XML" attributeName="stroke-width" values="16;20;16" dur="1s" fill="freeze"/><animate id="s" attributeType="XML" attributeName="stroke-dashoffset" begin="0s;s.end" to= "-1800" dur="6s"/></path></g><g id="b"><path d="M194 179H131c-34 65 0 143 0 143h63C132 251 194 179 194 179Zm-26 128H144s-25-35 0-111h23S126 245 168 307Z" stroke="black" fill-opacity="0.9" stroke-width=".7"><animate id="p" begin="s.begin" attributeName="fill" dur="6s" values="black;black;#222222;black;black;#777777;black;black;#AAAAAA;black"/></path><text x="2" y="40" font-size="3em" fill-opacity="0.3" fill="black">●    </text><path d="M90 203c-21 41 0 91 0 91h11c0 0-16-42 0-91z" stroke-opacity=".7" fill-opacity=".7" fill="transparent"><animate id="w" attributeName="fill" values="transparent;white;transparent" begin="p.begin+.67s;p.begin+2.67s;p.begin+4.67s" dur="1s"/><animate begin="w.begin" attributeName="stroke" values="transparent;black;transparent" dur="1s"/></path><path d="M60 212c-17 34 0 74 0 74h9c0-1-13-34 0-74z" stroke-opacity=".5" fill-opacity=".5" fill="transparent"><animate attributeName="fill" values="transparent;white;transparent" begin="w.begin+.2s" dur="1s"/><animate attributeName="stroke" values="transparent;black;transparent" begin="w.begin+.2s" dur="1s"/></path><path d="M37 221c-13 26 0 57 0 57h7c0 0-10-26 0-57z" stroke-opacity=".3" fill-opacity="0.3" fill="transparent"><animate attributeName="fill" values="transparent;white;transparent" begin="w.begin+.4s" dur="1s"/><animate attributeName="stroke" values="transparent;black;transparent" begin="w.begin+.4s" dur="1s"/></path></g><use href="#b" x="-500" y="-500" transform="rotate(180)"/></svg>