<svg xmlns="http://www.w3.org/2000/svg" xmlns:xlink="http://www.w3.org/1999/xlink" width="500" height="500" viewbox="0 0 500 500" style="background-color:#111111"><g fill-opacity="0.3"><rect fill="#80A6AF" x="249" y="208" width="684" height="528" transform="rotate(57)"/><circle fill="#80A6AF" cx="125" cy="261" r="289"/><rect fill="#80A6AF" x="16" y="48" width="542" height="792" transform="rotate(289)"/><circle fill="#80A6AF" cx="20" cy="153" r="309"/><circle fill="#80A6AF" cx="398" cy="241" r="309"/><circle fill="#80A6AF" cx="493" cy="89" r="341"/><rect fill="#3A424F" x="2" y="100" width="634" height="698" transform="rotate(57)"/><rect fill="#80A6AF" x="69" y="190" width="590" height="548" transform="rotate(313)"/><rect fill="#80A6AF" x="86" y="162" width="730" height="768" transform="rotate(17)"/><circle fill="#80A6AF" cx="436" cy="109" r="339"/><rect fill="#80A6AF" x="1" y="140" width="612" height="644" transform="rotate(41)"/><rect fill="#80A6AF" x="131" y="236" width="560" height="792" transform="rotate(89)"/><circle fill="#3A424F" cx="191" cy="473" r="333"/><circle fill="#80A6AF" cx="304" cy="49" r="281"/><circle fill="#80A6AF" cx="76" cy="465" r="319"/></g><g><path stroke-dasharray="0" stroke-dashoffset="0" stroke-width="16" d="M195.5 248c0 30 37.5 30 52.5 0s 52.5-30 52.5 0s-37.5 30-52.5 0s-52.5-30-52.5 0" fill="none"><animate begin="s.begin" attributeType="XML" attributeName="stroke" values="#FFC768;#3A424F;#FFC768" dur="4s" fill="freeze"/><animate begin="s.begin" attributeType="XML" attributeName="stroke-dasharray" values="0;50;0" dur="6s" fill="freeze"/><animate begin="a.begin" attributeType="XML" attributeName="stroke-width" values="16;20;16" dur="1s" fill="freeze"/></path><path stroke-dasharray="300" stroke-dashoffset="300" stroke-width="16" d="M195.5 248c0 30 37.5 30 52.5 0s 52.5-30 52.5 0s-37.5 30-52.5 0s-52.5-30-52.5 0" fill="none"><animate begin="s.begin" attributeType="XML" attributeName="stroke" values="#FFC768;#FFC768;#FFC768" dur="4s" fill="freeze"/><animate id="a" begin="s.begin;a.end" attributeType="XML" attributeName="stroke-width" values="16;20;16" dur="1s" fill="freeze"/><animate id="s" attributeType="XML" attributeName="stroke-dashoffset" begin="0s;s.end" to= "-1800" dur="6s"/></path></g><g id="574b"><path d="M194 179H131c-34 65 0 143 0 143h63C132 251 194 179 194 179Zm-26 128H144s-25-35 0-111h23S126 245 168 307Z" stroke="black" fill-opacity="0.9" stroke-width=".7"><set attributeName="stroke-dasharray" to="20"/><set attributeName="stroke-width" to="2"/><set attributeName="fill" to="#FFC768"/><animate begin="s.begin" attributeType="XML" attributeName="stroke-dashoffset" from="0" to="280" dur="6s" fill="freeze"/><animate begin="s.begin" attributeType="XML" attributeName="stroke" values="#765976;#38ba1d;#AAAAAA;#765976" dur="6s" fill="freeze"/></path><text x="2" y="40" font-size="3em" fill-opacity="0.3" fill="black">𝛀   </text><path d="M90 203c-21 41 0 91 0 91h11c0 0-16-42 0-91z" stroke-opacity=".7" fill-opacity=".7" fill="transparent"><animate id="w" attributeName="fill" values="transparent;#FFC768;transparent" begin="s.begin+.17s;s.begin+2.17s;s.begin+4.17s" dur="1s"/><animate begin="w.begin" attributeName="stroke" values="transparent;black;transparent" dur="1s"/></path><path d="M60 212c-17 34 0 74 0 74h9c0-1-13-34 0-74z" stroke-opacity=".5" fill-opacity=".5" fill="transparent"><animate attributeName="fill" values="transparent;#FFC768;transparent" begin="w.begin+.2s" dur="1s"/><animate attributeName="stroke" values="transparent;black;transparent" begin="w.begin+.2s" dur="1s"/></path><path d="M37 221c-13 26 0 57 0 57h7c0 0-10-26 0-57z" stroke-opacity=".3" fill-opacity="0.3" fill="transparent"><animate attributeName="fill" values="transparent;#FFC768;transparent" begin="w.begin+.4s" dur="1s"/><animate attributeName="stroke" values="transparent;black;transparent" begin="w.begin+.4s" dur="1s"/></path></g><use href="#574b" x="-500" y="-500" transform="rotate(180)"/></svg>