<svg xmlns="http://www.w3.org/2000/svg" xmlns:xlink="http://www.w3.org/1999/xlink" width="500" height="500" viewbox="0 0 500 500" style="background-color:#111111"><g fill-opacity="0.3"><circle fill="#c0c0c0" cx="284" cy="301" r="334" stroke="#CD7F32"/><rect fill="#c0c0c0" x="41" y="202" width="574" height="546" transform="rotate(353)" stroke="#CD7F32"/><circle fill="#c0c0c0" cx="414" cy="133" r="346" stroke="#CD7F32"/><rect fill="#c0c0c0" x="248" y="230" width="580" height="502" transform="rotate(353)" stroke="#CD7F32"/><rect fill="#c0c0c0" x="3" y="96" width="618" height="664" transform="rotate(121)" stroke="white"/><circle fill="#e5e4e2" cx="395" cy="53" r="341" stroke="#C0C0C0"/><circle fill="#e5e4e2" cx="480" cy="317" r="349" stroke="#C0C0C0"/><circle fill="#e5e4e2" cx="132" cy="209" r="335" stroke="#C0C0C0"/><rect fill="#c0c0c0" x="213" y="90" width="750" height="534" transform="rotate(217)" stroke="#CD7F32"/><circle fill="#c0c0c0" cx="500" cy="73" r="385" stroke="white"/><circle fill="#c0c0c0" cx="18" cy="397" r="345" stroke="#CD7F32"/><rect fill="#e5e4e2" x="5" y="188" width="538" height="610" transform="rotate(25)" stroke="#C0C0C0"/><rect fill="#e5e4e2" x="64" y="236" width="596" height="708" transform="rotate(265)" stroke="#C0C0C0"/><rect fill="#e5e4e2" x="144" y="24" width="620" height="534" transform="rotate(289)" stroke="#C0C0C0"/><rect fill="#c0c0c0" x="36" y="20" width="626" height="658" transform="rotate(73)" stroke="white"/></g><g id="infinity_1"><path id="infinity" stroke-dasharray="0" stroke-dashoffset="0" stroke-width="16" d="M195.5 248c0 30 37.5 30 52.5 0s 52.5-30 52.5 0s-37.5 30-52.5 0s-52.5-30-52.5 0" fill="none"><animate begin="s.begin" attributeType="XML" attributeName="stroke" values="white;#C0C0C0;white" dur="4s" fill="freeze"/><animate begin="s.begin" attributeType="XML" attributeName="stroke-dasharray" values="0;50;0" dur="6s" fill="freeze"/><animate begin="a.begin" attributeType="XML" attributeName="stroke-width" values="16;20;16" dur="1s" fill="freeze"/></path><path id="infinity_2" stroke-dasharray="300" stroke-dashoffset="300" stroke-width="16" d="M195.5 248c0 30 37.5 30 52.5 0s 52.5-30 52.5 0s-37.5 30-52.5 0s-52.5-30-52.5 0" fill="none"><animate begin="s.begin" attributeType="XML" attributeName="stroke" values="#CD7F32;white;#CD7F32" dur="4s" fill="freeze"/><animate id="a" begin="s.begin;s.begin+1s;s.begin+2s;s.begin+3s;s.begin+4s;s.begin+5s;s.begin+6s" attributeType="XML" attributeName="stroke-width" values="16;20;16" dur="1s" fill="freeze"/><animate id="s" attributeType="XML" attributeName="stroke-dashoffset" begin="0s;s.end" to= "-1800" dur="6s"/></path></g><g id="b"><path d="M194 179H131c-34 65 0 143 0 143h63C132 251 194 179 194 179Zm-26 128H144s-25-35 0-111h23S126 245 168 307Z" stroke="black" fill-opacity="0.9" stroke-width=".7"><set attributeName="stroke-dasharray" to="20"/><set attributeName="stroke-width" to="2"/><set attributeName="fill" to="black"/><animate begin="s.begin;s.end" attributeType="XML" attributeName="stroke-dashoffset" from="0" to="280" dur="6s" fill="freeze"/><animate begin="s.begin;s.end" attributeType="XML" attributeName="stroke" values="#0ec2d7;#777777;#AAAAAA;#0ec2d7" dur="6s" fill="freeze"/></path><text x="2" y="40" font-size="3em" fill-opacity="0.3" fill="black">☆    </text><path d="M90 203c-21 41 0 91 0 91h11c0 0-16-42 0-91z" stroke-opacity=".7" fill-opacity=".7" fill="transparent"><animate id="w" attributeName="fill" values="transparent;;transparent" begin="p.begin+.67s;p.begin+2.67s;p.begin+4.67s" dur="1s"/><animate begin="w.begin" attributeName="stroke" values="transparent;black;transparent" dur="1s"/></path><path d="M60 212c-17 34 0 74 0 74h9c0-1-13-34 0-74z" stroke-opacity=".5" fill-opacity=".5" fill="transparent"><animate attributeName="fill" values="transparent;;transparent" begin="w.begin+.2s" dur="1s"/><animate attributeName="stroke" values="transparent;black;transparent" begin="w.begin+.2s" dur="1s"/></path><path d="M37 221c-13 26 0 57 0 57h7c0 0-10-26 0-57z" stroke-opacity=".3" fill-opacity="0.3" fill="transparent"><animate attributeName="fill" values="transparent;;transparent" begin="w.begin+.4s" dur="1s"/><animate attributeName="stroke" values="transparent;black;transparent" begin="w.begin+.4s" dur="1s"/></path></g><use href="#b" x="-500" y="-500" transform="rotate(180)"/></svg>