<svg xmlns="http://www.w3.org/2000/svg" xmlns:xlink="http://www.w3.org/1999/xlink" width="500" height="500" viewbox="0 0 500 500" style="background-color:#111111"><g fill-opacity="0.3"><rect fill="#AAAAAA" x="30" y="54" width="650" height="770" transform="rotate(1)" stroke="#AAAAAA"/><rect fill="#AAAAAA" x="135" y="52" width="624" height="566" transform="rotate(137)" stroke="#AAAAAA"/><rect fill="#cfca1f" x="40" y="152" width="778" height="726" transform="rotate(305)" stroke="#cfca1f"/><rect fill="#cfca1f" x="206" y="52" width="796" height="586" transform="rotate(201)" stroke="#cfca1f"/><rect fill="#cfca1f" x="120" y="176" width="566" height="760" transform="rotate(9)" stroke="#cfca1f"/><circle fill="#cfca1f" cx="198" cy="65" r="292" stroke="#cfca1f"/><rect fill="#cfca1f" x="93" y="8" width="568" height="554" transform="rotate(209)" stroke="#cfca1f"/><rect fill="#AAAAAA" x="86" y="104" width="734" height="676" transform="rotate(145)" stroke="#AAAAAA"/><rect fill="#cfca1f" x="149" y="128" width="798" height="648" transform="rotate(265)" stroke="#cfca1f"/><rect fill="#cfca1f" x="37" y="134" width="546" height="566" transform="rotate(289)" stroke="#cfca1f"/><rect fill="#AAAAAA" x="137" y="134" width="566" height="592" transform="rotate(241)" stroke="#AAAAAA"/><rect fill="#AAAAAA" x="162" y="172" width="624" height="686" transform="rotate(81)" stroke="#AAAAAA"/><rect fill="#cfca1f" x="169" y="246" width="608" height="558" transform="rotate(249)" stroke="#cfca1f"/><rect fill="#AAAAAA" x="42" y="126" width="678" height="602" transform="rotate(353)" stroke="#AAAAAA"/><circle fill="#cfca1f" cx="22" cy="117" r="310" stroke="#cfca1f"/></g><g id="infinity_1"><path id="infinity" stroke-dasharray="0" stroke-dashoffset="0" stroke-width="16" d="M195.5 248c0 30 37.5 30 52.5 0s 52.5-30 52.5 0s-37.5 30-52.5 0s-52.5-30-52.5 0" fill="none"><animate begin="s.begin" attributeType="XML" attributeName="stroke" values="#0ec2d7;#cfca1f;#0ec2d7" dur="4s" fill="freeze"/><animate begin="s.begin" attributeType="XML" attributeName="stroke-dasharray" values="0;50;0" dur="6s" fill="freeze"/><animate begin="a.begin" attributeType="XML" attributeName="stroke-width" values="16;20;16" dur="1s" fill="freeze"/></path><path id="infinity_2" stroke-dasharray="300" stroke-dashoffset="300" stroke-width="16" d="M195.5 248c0 30 37.5 30 52.5 0s 52.5-30 52.5 0s-37.5 30-52.5 0s-52.5-30-52.5 0" fill="none"><animate begin="s.begin" attributeType="XML" attributeName="stroke" values="#AAAAAA;#0ec2d7;#AAAAAA" dur="4s" fill="freeze"/><animate id="a" begin="s.begin;s.begin+1s;s.begin+2s;s.begin+3s;s.begin+4s;s.begin+5s;s.begin+6s" attributeType="XML" attributeName="stroke-width" values="16;20;16" dur="1s" fill="freeze"/><animate id="s" attributeType="XML" attributeName="stroke-dashoffset" begin="0s;s.end" to= "-1800" dur="6s"/></path></g><g id="b"><path d="M194 179H131c-34 65 0 143 0 143h63C132 251 194 179 194 179Zm-26 128H144s-25-35 0-111h23S126 245 168 307Z" stroke="black" fill-opacity="0.9" stroke-width=".7"><animate id="p" begin="s.begin" attributeName="fill" dur="6s" values="black;black;#0ec2d7;black;black;#cfca1f;black;black;#AAAAAA;black"/></path><text x="2" y="40" font-size="3em" fill-opacity="0.3" fill="black">✦    </text><path d="M90 203c-21 41 0 91 0 91h11c0 0-16-42 0-91z" stroke-opacity=".7" fill-opacity=".7" fill="transparent"><animate id="w" attributeName="fill" values="transparent;white;transparent" begin="p.begin+.67s;p.begin+2.67s;p.begin+4.67s" dur="1s"/><animate begin="w.begin" attributeName="stroke" values="transparent;black;transparent" dur="1s"/></path><path d="M60 212c-17 34 0 74 0 74h9c0-1-13-34 0-74z" stroke-opacity=".5" fill-opacity=".5" fill="transparent"><animate attributeName="fill" values="transparent;white;transparent" begin="w.begin+.2s" dur="1s"/><animate attributeName="stroke" values="transparent;black;transparent" begin="w.begin+.2s" dur="1s"/></path><path d="M37 221c-13 26 0 57 0 57h7c0 0-10-26 0-57z" stroke-opacity=".3" fill-opacity="0.3" fill="transparent"><animate attributeName="fill" values="transparent;white;transparent" begin="w.begin+.4s" dur="1s"/><animate attributeName="stroke" values="transparent;black;transparent" begin="w.begin+.4s" dur="1s"/></path></g><use href="#b" x="-500" y="-500" transform="rotate(180)"/></svg>