<svg xmlns="http://www.w3.org/2000/svg" width="500" height="500">
   <path fill="#555" d="M0 0h500v500H0z"/>
   <g fill-opacity=".3">
      <circle fill="#F11" cx="37" cy="19" r="254"/>
      <circle fill="#1F3" cx="33" cy="273" r="318"/>
      <circle fill="#1F3" cx="485" cy="243" r="310"/>
      <path fill="#1F3" d="M-234.7-6.412-876.365 292.8l-216.381-464.03 641.666-299.213z"/>
      <path fill="#11F" d="M146.102-268.14-46.114-796.249 508.305-998.04 700.52-469.932z"/>
      <path fill="#F11" d="m58.835 149.861 477.1 429.582-521.922 579.653-477.1-429.582z"/>
      <circle fill="#F11" cx="371" cy="442" r="360"/>
      <circle fill="#1F3" cx="359" cy="180" r="399"/>
      <circle fill="#11F" cx="51" cy="26" r="256"/>
      <circle fill="#11F" cx="129" cy="65" r="266"/>
      <path fill="#F11" d="M231.678 4.743 565.5-472.004l566.853 396.915L798.53 401.658z"/>
      <circle fill="#11F" cx="487" cy="244" r="392"/>
   </g>
   <g fill="none">
     <path d="M653 828C653 928 778 928 828 828S1003 728 1003 828 878 928 828 828 653 728 653 828" transform="scale(.3)">
       <animate begin="s.begin+1s" attributeType="XML" attributeName="stroke"  values="#11FF33;#FF1111;#11FF33" dur="4s" fill="freeze" />
       <animate begin="s.end;s.end+2s;s.end+4s" attributeType="XML" attributeName="stroke-dasharray" values="0;100;0" dur="1s" fill="freeze" />
       <animate begin="s.begin;s.begin+1s;s.begin+2s;s.begin+3s;s.begin+4s;s.begin+5s;s.begin+6s" attributeType="XML" attributeName="stroke-width" values="32;70;32" dur="1s" fill="freeze" />
     </path>
     <path pathLengh="1000" stroke-dasharray="1000" stroke-dashoffset="1000" stroke="#FF1111" stroke-width="70" d="M653 828C653 928 778 928 828 828S1003 728 1003 828 878 928 828 828 653 728 653 828" transform="scale(.3)">
       <animate begin="s.end" attributeType="XML" attributeName="stroke"  values="#FF1111;#1111FF;#FF1111" dur="4s" fill="freeze" />
       <animate begin="s.begin;s.begin+1s;s.begin+2s;s.begin+3s;s.begin+4s;s.begin+5s;s.begin+6s" attributeType="XML" attributeName="stroke-width" values="32;70;32" dur="1s" fill="freeze" />
       <animate id="s" attributeType="XML" attributeName="stroke-dashoffset" begin="0s;s.end" to= "-5000" dur="6s" fill="reset" />
     </path>
   </g>
   <text x="10" y="30" fill="#fff">SYNC X COLORS</text>
   <g id="b">
      <path d="M194 179H131c-34 65 0 143 0 143h63C132 251 194 179 194 179Zm-26 128H144s-25-35 0-111h23S126 245 168 307Z" stroke="#000" fill-opacity=".9">
         <animate id="p" attributeName="fill" values="black;#1111FF;black" begin="s.begin+2s" dur="1.5s"/>
         <animate id="a" attributeName="fill" values="black;#FF1111;black" begin="s.begin+4s" dur="1.5s"/>
         <animate id="k" attributeName="fill" values="black;#11FF33;black" begin="s.begin+6s" dur="1.5s"/>
         <animate begin="a.begin;p.begin;k.begin" attributeType="XML" attributeName="stroke-dasharray" values="0;100;0" dur="2s" fill="freeze"/>
      </path>
      <path d="M90 203c-21 41 0 91 0 91h11c0 0-16-42 0-91z" stroke-opacity=".7" fill-opacity=".7" fill="transparent">
         <animate attributeName="fill" values="transparent;#1111FF;transparent" begin="p.begin" dur="1s"/>
         <animate attributeName="stroke" values="transparent;#1111FF;transparent" begin="p.begin" dur="1s"/>
         <animate attributeName="fill" values="transparent;#FF1111;transparent" begin="a.begin" dur="1s"/>
         <animate attributeName="stroke" values="transparent;#FF1111;transparent" begin="a.begin" dur="1s"/>
         <animate attributeName="fill" values="transparent;#11FF33;transparent" begin="k.begin" dur="1s"/>
         <animate attributeName="stroke" values="transparent;#11FF33;transparent" begin="k.begin" dur="1s"/>
         <animate begin="a.begin;p.begin;k.begin" attributeType="XML" attributeName="stroke-dasharray" values="0;100;0" dur="1s" fill="freeze"/>
      </path>
      <path d="M60 212c-17 34 0 74 0 74h9c0-1-13-34 0-74z" stroke-opacity=".35" fill-opacity=".35" fill="transparent">
         <animate attributeName="fill" values="transparent;#1111FF;transparent" begin="p.begin+0.2s" dur="1s"/>
         <animate attributeName="stroke" values="transparent;#1111FF;transparent" begin="p.begin+0.2s" dur="1s"/>
         <animate attributeName="fill" values="transparent;#FF1111;transparent" begin="a.begin+0.2s" dur="1s"/>
         <animate attributeName="stroke" values="transparent;#FF1111;transparent" begin="a.begin+0.2s" dur="1s"/>
         <animate attributeName="fill" values="transparent;#11FF33;transparent" begin="k.begin+0.2s" dur="1s"/>
         <animate attributeName="stroke" values="transparent;#11FF33;transparent" begin="k.begin+0.2s" dur="1s"/>
         <animate begin="a.begin+0.2s;p.begin+0.2s;k.begin+0.2s" attributeType="XML" attributeName="stroke-dasharray" values="0;100;0" dur="1s" fill="freeze"/>
      </path>
      <path d="M37 221c-13 26 0 57 0 57h7c0 0-10-26 0-57z" stroke-opacity=".05" fill-opacity=".05" fill="transparent">
         <animate attributeName="fill" values="transparent;#1111FF;transparent" begin="p.begin+0.4s" dur="1s"/>
         <animate attributeName="stroke" values="transparent;#1111FF;transparent" begin="p.begin+0.4s" dur="1s"/>
         <animate attributeName="fill" values="transparent;#FF1111;transparent" begin="a.begin+0.4s" dur="1s"/>
         <animate attributeName="stroke" values="transparent;#FF1111;transparent" begin="a.begin+0.4s" dur="1s"/>
         <animate attributeName="fill" values="transparent;#11FF33;transparent" begin="k.begin+0.4s" dur="1s"/>
         <animate attributeName="stroke" values="transparent;#11FF33;transparent" begin="k.begin+0.4s" dur="1s"/>
      </path>
      <path d="M20 229c-9 18 0 40 0 40h5c0 0-7-18 0-40z" stroke-opacity=".02" fill-opacity=".02" fill="transparent">
         <animate attributeName="fill" values="transparent;#1111FF;transparent" begin="p.begin+0.6s" dur="1s"/>
         <animate attributeName="stroke" values="transparent;#1111FF;transparent" begin="p.begin+0.6s" dur="1s"/>
         <animate attributeName="fill" values="transparent;#FF1111;transparent" begin="a.begin+0.6s" dur="1s"/>
         <animate attributeName="stroke" values="transparent;#FF1111;transparent" begin="a.begin+0.6s" dur="1s"/>
         <animate attributeName="fill" values="transparent;#11FF33;transparent" begin="k.begin+0.6s" dur="1s"/>
         <animate attributeName="stroke" values="transparent;#11FF33;transparent" begin="k.begin+0.6s" dur="1s"/>
      </path>
   </g>
   <use href="#b" x="-500" y="-500" transform="rotate(180)"/>
</svg>
