<svg xmlns="http://www.w3.org/2000/svg" width="500" height="500">
   <g id="b">
      <path d="M144.4 89.31h-31.3c-16.88 32.57 0 71.38 0 71.38h31.3c-30.95-35 0-71.38 0-71.38Zm-13.17 63.76h-11.65s-12.47-17.38 0-55.68h11.65s-20.8 25.18 0 55.68Z" transform="matrix(2 0 0 2 -95 0)" stroke="#000" fill-opacity=".9">
         <animate id="p" attributeName="fill" values="black;#1111FF;black" begin="s.begin+2s" dur="1.5s"/>
         <animate id="a" attributeName="fill" values="black;#FF1111;black" begin="s.begin+4s" dur="1.5s"/>
         <animate id="k" attributeName="fill" values="black;#11FF33;black" begin="s.begin+6s" dur="1.5s"/>
         <animate begin="a.begin;p.begin;k.begin" attributeType="XML" attributeName="stroke-dasharray" values="0;100;0" dur="2s" fill="freeze"/>
      </path>
      <path d="M107.318 117.546c-13.399 25.852 0 56.658 0 56.658h6.873c-.154-.407-9.773-26.119.03-56.265z" transform="matrix(1.6 0 0 1.6 -85 15)" stroke-opacity=".7" fill-opacity=".7" fill="transparent">
         <animate attributeName="fill" values="transparent;white;transparent" begin="a.begin;p.begin;k.begin" dur="1s"/>
         <animate attributeName="stroke" values="transparent;white;transparent" begin="a.begin;p.begin;k.begin" dur="1s"/>
         <animate attributeName="fill" values="transparent;black;transparent" begin="a.begin;p.begin;k.begin" dur="1s"/>
         <animate attributeName="stroke" values="transparent;black;transparent" begin="a.begin;p.begin;k.begin" dur="1s"/>
         <animate begin="a.begin;p.begin;k.begin" attributeType="XML" attributeName="stroke-dasharray" values="0;100;0" dur="1s" fill="freeze"/>
      </path>
      <path d="M107.318 117.546c-13.399 25.852 0 56.658 0 56.658h6.873c-.154-.407-9.773-26.119.03-56.265z" transform="matrix(1.3 0 0 1.3 -88 60)" stroke-opacity=".35" fill-opacity=".35" fill="transparent">
         <animate attributeName="fill" values="transparent;white;transparent" begin="a.begin + .2s;p.begin + .2s;k.begin+.2s" dur="1s"/>
         <animate attributeName="stroke" values="transparent;white;transparent" begin="a.begin + .2s;p.begin + .2s;k.begin+.2s" dur="1s"/>
         <animate attributeName="fill" values="transparent;black;transparent" begin="a.begin + .2s;p.begin + .2s;k.begin+.2s" dur="1s"/>
         <animate attributeName="stroke" values="transparent;black;transparent" begin="a.begin + .2s;p.begin + .2s;k.begin+.2s" dur="1s"/>
         <animate begin="a.begin+.2s;p.begin+.2s;k.begin+.2s" attributeType="XML" attributeName="stroke-dasharray" values="0;100;0" dur="1s" fill="freeze"/>
      </path>
      <path d="M107.318 117.546c-13.399 25.852 0 56.658 0 56.658h6.873c-.154-.407-9.773-26.119.03-56.265z" transform="translate(-82 104)" stroke-opacity=".05" fill-opacity=".05" fill="transparent">
         <animate attributeName="fill" values="transparent;white;transparent" begin="a.begin + .4s;p.begin + .4s;k.begin+.4s" dur="1s"/>
         <animate attributeName="stroke" values="transparent;white;transparent" begin="a.begin + .4s;p.begin + .4s;k.begin+.4s" dur="1s"/>
         <animate attributeName="fill" values="transparent;black;transparent" begin="a.begin + .4s;p.begin + .4s;k.begin+.4s" dur="1s"/>
         <animate attributeName="stroke" values="transparent;black;transparent" begin="a.begin + .4s;p.begin + .4s;k.begin+.4s" dur="1s"/>
         <animate begin="a.begin+.4s;p.begin+.4s;k.begin+.4s" attributeType="XML" attributeName="stroke-dasharray" values="0;100;0" dur="1s" fill="freeze"/>
      </path>
      <path d="M107.318 117.546c-13.399 25.852 0 56.658 0 56.658h6.873c-.154-.407-9.773-26.119.03-56.265z" transform="matrix(.7 0 0 .7 -70 148)" stroke-opacity=".02" fill-opacity=".02" fill="transparent">
         <animate attributeName="fill" values="transparent;white;transparent" begin="a.begin + .6s;p.begin + .6s;k.begin+.6s" dur="1s"/>
         <animate attributeName="stroke" values="transparent;white;transparent" begin="a.begin + .6s;p.begin + .6s;k.begin+.6s" dur="1s"/>
         <animate attributeName="fill" values="transparent;black;transparent" begin="a.begin + .6s;p.begin + .6s;k.begin+.6s" dur="1s"/>
         <animate attributeName="stroke" values="transparent;black;transparent" begin="a.begin + .6s;p.begin + .6s;k.begin+.6s" dur="1s"/>
      </path>
   </g>
   <use href="#b" x="-500" y="-500" transform="rotate(180)"/>
</svg>
